<svg width="68" height="68" viewBox="0 0 68 68" fill="none" xmlns="http://www.w3.org/2000/svg">
<g id="Group 1">
<path id="Vector" d="M33.9932 67.9985C52.7708 67.9985 68 52.7799 68 33.9917C68 15.2171 52.7708 0 33.9932 0C15.2178 0 0 15.2171 0 33.9917C0 52.7799 15.2178 67.9985 33.9932 67.9985Z" fill="white"/>
<path id="Vector_2" d="M33.9933 57.0886C46.7419 57.0886 57.088 46.7607 57.088 33.9916C57.088 21.2452 46.7419 10.9015 33.9933 10.9015C21.24 10.9015 10.9023 21.2452 10.9023 33.9916C10.9023 46.7607 21.24 57.0886 33.9933 57.0886Z" fill="#E11837"/>
<path id="Vector_3" fill-rule="evenodd" clip-rule="evenodd" d="M32.5845 44.7549C32.5474 44.7882 32.5285 44.8214 32.5187 44.8569V44.863C32.5089 44.8947 32.4953 44.9167 32.4794 44.9514H32.4711L32.4794 44.9703C32.4597 44.9885 32.4552 45.0179 32.4325 45.0179C32.4325 45.0179 32.425 45.0179 32.4091 45.0179C32.3811 45.0179 32.3524 45.0179 32.326 45.0179C32.2587 45.0459 32.2194 45.1653 32.2194 45.1842L32.2066 45.1986L32.2194 45.2212C32.2194 45.2394 32.2587 45.2915 32.2436 45.3475C32.2307 45.3475 32.2307 45.358 32.1945 45.3754C32.0418 45.445 32.0418 45.6097 32.0418 45.6188C32.0418 45.6369 32.0289 45.6777 32.0116 45.7125H31.9927V45.7155C31.9526 45.739 31.902 45.7155 31.8385 45.6777C31.6722 45.5598 31.7508 45.1464 31.809 44.9703C31.936 44.9015 32.0501 44.7821 32.1189 44.6703C32.2194 44.4375 32.3426 44.1866 32.5935 44.1533C32.6094 44.1533 32.6472 44.1533 32.6615 44.1624C32.682 44.1707 32.691 44.2077 32.691 44.241C32.691 44.2705 32.691 44.2969 32.7167 44.3355C32.722 44.5244 32.6472 44.6703 32.5845 44.7549ZM46.9422 48.8211H46.9324C46.819 48.7455 46.819 48.6805 46.8031 48.5701C46.8031 48.4976 46.8031 48.3993 46.7283 48.2867C46.6346 48.1257 46.6406 47.8854 46.6444 47.6624C46.6444 47.5241 46.6505 47.3828 46.6346 47.2634C46.5915 47.0004 46.5681 46.1652 46.5681 46.0398C46.5915 45.9891 46.6406 45.8508 46.6505 45.4555C46.6656 44.9303 46.5915 44.7368 46.4774 44.4685L46.4585 44.405C46.3285 44.0989 46.3897 44.009 46.5061 43.9047C46.6852 43.7331 46.5371 43.2161 46.4328 42.9319C46.3255 42.6599 46.2688 42.313 46.3255 41.8791C46.3542 41.542 46.2303 41.1589 46.1615 41.0183C46.1373 41.0024 46.1373 40.9843 46.1237 40.9692C46.0534 40.8565 46.0421 40.8248 46.0783 40.5701C46.1373 40.2799 45.9536 40.066 45.9446 40.0486L45.9385 40.0433H45.9287C45.9287 40.0433 45.7624 39.9587 45.7624 39.7894C45.7624 39.7009 45.7428 39.3457 45.55 39.1024L45.5002 39.0495C45.3679 38.8975 45.2734 38.791 45.2984 38.537C45.3135 38.2264 45.1956 37.8432 45.1956 37.8432C45.1805 37.8341 45.0626 37.3633 45.0973 37.1222C45.2984 36.8085 45.2538 36.6634 45.1956 36.4442C45.1805 36.3687 45.1502 36.2689 45.126 36.1502C45.0709 35.7633 44.8797 35.3831 44.8109 35.2781C44.8562 35.2274 44.9197 35.0838 44.7565 34.885C44.597 34.7142 44.5834 34.5366 44.5834 34.5011C44.6076 34.4709 44.6688 34.3008 44.6325 34.0423C44.6227 33.9441 44.6076 33.8632 44.5388 33.8337C44.47 33.8224 44.4111 33.8882 44.3264 34.0355C44.2773 34.1058 44.2289 34.1912 44.207 34.1912C44.207 34.1912 44.1488 34.1557 44.0649 33.9917C43.9871 33.8821 43.9228 33.8224 43.842 33.8239C43.7384 33.83 43.6515 33.9698 43.5759 34.1315L43.548 34.1587C43.5238 34.2373 43.4875 34.2865 43.4595 34.3318C43.3983 34.4081 43.3492 34.4248 43.2328 34.3953C43.1292 34.3636 43.1232 34.328 43.0975 34.2698C43.0877 34.1912 43.0537 34.1194 42.9524 34.0197C42.8821 33.9622 42.8224 33.9622 42.7786 33.9698C42.6055 34.0197 42.5307 34.3174 42.5072 34.3567V34.3794L42.5949 34.8722C42.5715 34.9168 42.5072 35.1118 42.6569 35.2781C42.6856 35.3204 42.6894 35.3446 42.6856 35.3831C42.6856 35.4776 42.5715 35.5879 42.5072 35.6303H42.2797V35.6529L42.2442 35.8441C42.1875 35.891 41.9895 36.08 41.7167 36.3543C41.3735 36.677 41.5995 37.1585 41.7764 37.5137L41.7983 37.5636C41.9283 37.8712 41.83 38.0322 41.7983 38.073C41.7582 38.1024 41.5209 38.2596 41.3675 38.4607C41.2239 38.6474 40.8959 38.766 40.6684 38.6988C40.6525 38.6988 40.6329 38.6882 40.6125 38.67V38.6655C40.4318 38.568 40.3132 38.1977 40.2776 38.073C40.2572 37.9241 40.0668 37.2877 39.8416 36.9385C39.7781 36.8085 39.7048 36.7564 39.6314 36.7655C39.5287 36.7655 39.478 36.8841 39.4259 36.9975L39.3994 37.0383C39.3155 37.234 39.4621 37.7495 39.5287 37.9075C39.5619 37.9664 39.5619 38.0034 39.5476 38.0291C39.5287 38.0382 39.4742 38.0631 39.3888 38.0322C39.3155 38.0148 39.3155 37.9513 39.3012 37.8432C39.2921 37.7646 39.2861 37.6807 39.2369 37.6157C39.1674 37.5137 39.1137 37.0965 39.0895 36.8373C39.0895 36.7655 39.0638 36.7027 39.0638 36.6551C39.0389 36.5077 38.9709 36.2651 38.8915 36.0588C38.8462 35.9386 38.8175 35.826 38.8031 35.7474C38.7441 35.5547 38.4917 35.0317 38.367 34.885L38.3579 34.8722C38.2952 34.7906 38.2007 34.6719 38.2189 34.591C38.2189 34.5729 38.2408 34.5555 38.2756 34.5306C38.3428 34.4883 38.4071 34.4558 38.4071 34.4081C38.4222 34.3318 38.3935 34.2865 38.2952 34.1429L38.2801 34.1368C38.2189 34.0355 38.2159 34.0114 38.2159 34.0023C38.231 33.9917 38.2952 33.9894 38.3542 33.9894L38.4071 33.9864C38.4721 33.9864 38.5265 33.9698 38.5469 33.935C38.5847 33.9071 38.5817 33.8632 38.5817 33.8239C38.5703 33.7846 38.5703 33.7627 38.5847 33.7559C38.7033 33.6508 38.7441 33.4891 38.7321 33.1603C38.7321 32.9653 38.7441 32.9185 38.7721 32.8656C38.8031 32.83 38.822 32.7907 38.822 32.7227C38.8462 32.5663 38.9407 32.4884 39.0351 32.4106L39.0533 32.3887C39.2619 32.5066 39.4742 32.3977 39.4742 32.3977L39.5876 32.3494L39.4742 32.3123C39.4742 32.3123 39.4546 32.3123 39.444 32.3002C39.444 32.2889 39.4621 32.2549 39.5287 32.1876C39.6964 32.0523 39.6216 31.9163 39.5619 31.812C39.5521 31.7961 39.5476 31.7644 39.5287 31.7508C39.5188 31.7039 39.5188 31.6556 39.5188 31.6556C39.5287 31.6404 39.5725 31.6404 39.6314 31.6835C39.7403 31.747 39.8098 31.7342 39.8416 31.7077C39.8816 31.6873 39.9028 31.6835 39.9368 31.7342C40.0668 31.8218 40.199 31.8354 40.456 31.8354H40.6329C40.7606 31.8551 40.8581 31.8218 40.9238 31.747C41.0213 31.6178 40.9873 31.4311 40.9715 31.4145C40.9775 31.2331 41.0032 31.0403 41.0176 30.933C41.1151 31.2784 41.2239 31.3207 41.5307 31.4145C41.6094 31.4281 41.6925 31.447 41.7265 31.4031C41.7643 31.3449 41.7469 31.2784 41.6925 31.1688C41.6683 31.0993 41.6343 31.0343 41.6131 30.9595C41.5859 30.8846 41.5995 30.8484 41.5995 30.8484C41.626 30.8453 41.7023 30.8612 41.7582 30.8846C41.8111 30.9111 41.8897 30.9428 41.9736 30.9595C42.1633 31.0109 42.1875 31.1068 42.2268 31.2195C42.2442 31.2784 42.251 31.3207 42.2797 31.3691V31.3789C42.3304 31.4281 42.4037 31.4908 42.4785 31.4696C42.5949 31.447 42.6402 31.2565 42.7189 30.933L42.7438 30.8484C42.8224 30.5272 42.7816 30.4221 42.7702 30.317C42.7702 30.308 42.7582 30.2982 42.7582 30.2838C42.8579 30.4002 42.9524 30.4644 43.0302 30.4644C43.0877 30.4644 43.133 30.4334 43.1716 30.3669C43.2759 30.215 43.1542 30.1047 43.0461 30.0019L43.0053 29.9709C43.0053 29.9376 43.0053 29.8825 43.0106 29.8757C43.0302 29.8757 43.0952 29.8757 43.1716 29.8946C43.2328 29.9082 43.331 29.9218 43.4293 29.9543C43.5978 29.9709 43.7142 29.9543 43.7996 29.8757C43.9561 29.7321 43.978 29.4653 43.9561 29.2211C43.9523 29.0912 43.978 29.0398 44.0014 29.0239C44.0271 29.0012 44.111 29.0239 44.17 29.0534C44.1896 29.0534 44.207 29.0534 44.207 29.0534C44.3264 29.0949 44.3423 29.0949 44.4504 29.0239C44.5547 28.9551 44.5146 28.8387 44.5048 28.7526C44.4912 28.7163 44.4798 28.6913 44.4798 28.6558C44.4798 28.609 44.5048 28.5576 44.5048 28.4971C44.5282 28.4215 44.5645 28.3112 44.5645 28.1782C44.5645 28.0482 44.597 27.9824 44.6529 27.8819C44.6869 27.8176 44.7104 27.7436 44.7444 27.631C44.8109 27.3891 44.7602 27.3045 44.6869 27.2289H44.6771C44.6325 27.1813 44.5584 27.077 44.4798 26.888C44.4504 26.8192 44.4504 26.7799 44.4798 26.7255C44.5048 26.6885 44.5645 26.6643 44.6325 26.6643C44.7209 26.6643 44.7444 26.7066 44.7761 26.7701C44.7995 26.7852 44.8343 26.8533 44.9326 26.8192C44.9877 26.8072 45.0013 26.8192 45.0467 26.8654C45.0663 26.8797 45.0867 26.9047 45.1215 26.9326C45.2288 27.0105 45.6876 26.9175 45.8259 26.8192C45.9211 26.7701 45.9249 26.6885 45.9249 26.6401C45.9249 26.5993 45.8909 26.5411 45.8365 26.523C45.7964 26.5041 45.7624 26.4791 45.7821 26.3461C45.7821 26.2721 45.7821 26.2071 45.7428 26.1489C45.7027 26.1141 45.6506 26.0831 45.55 26.0831C45.55 26.0831 45.4714 26.0831 45.4624 26.0786C45.4503 26.0725 45.4503 26.0521 45.4503 26.0362C45.4503 26.0158 45.4503 25.9735 45.4503 25.9388C45.4306 25.8171 45.3286 25.7559 45.2288 25.7067C45.1805 25.6712 45.1215 25.6319 45.0867 25.5926C45.0467 25.5117 45.0013 25.4634 44.9484 25.4634C44.8849 25.4634 44.8343 25.4974 44.7912 25.5352C44.7565 25.551 44.5834 25.4694 44.4466 25.356C44.4111 25.3258 44.3136 25.1898 44.1201 25.2087C43.9523 25.2147 43.8639 25.1263 43.8639 25.1263V25.124L43.8578 25.1119C43.8578 25.1119 43.7142 25.0137 43.6001 24.9056C43.4595 24.7575 43.2328 24.7869 43.2328 24.802C43.2328 24.802 42.9078 24.8285 42.4921 24.8126C42.0681 24.7869 41.5504 24.9267 41.2118 25.0273H41.1952V25.0431C41.1256 25.1104 41.0659 25.1437 41.0176 25.1119C40.948 25.0885 40.9072 24.9834 40.9072 24.9509C40.9072 24.8806 40.874 24.7438 40.7666 24.7166C40.6918 24.6826 40.6041 24.7318 40.515 24.8693C40.3207 25.1263 40.1189 25.0137 39.9882 24.9411C39.9663 24.9267 39.9368 24.9199 39.9323 24.9056C39.8778 24.8806 39.7463 24.8633 39.5876 24.8285C39.4259 24.7869 39.1916 24.7318 39.1425 24.7C39.1296 24.7 39.122 24.7 39.1137 24.6826C39.0215 24.6139 38.8462 24.4922 38.6451 24.5897C38.4222 24.6826 38.1773 24.6766 38.0382 24.6139C37.8606 24.5587 37.3074 24.6365 36.9877 24.8285C36.6816 25.0137 36.2228 24.8806 35.913 24.802L35.8918 24.7869L35.882 24.802C35.6522 24.9199 35.5313 24.8633 35.4383 24.8126C35.4255 24.802 35.3937 24.7869 35.3847 24.7786C35.2615 24.7318 34.7188 24.8126 34.5427 24.9267C34.517 24.9509 34.4581 24.9706 34.4135 24.9706H34.3931C34.2404 24.988 34.0681 24.9509 34.0137 24.9056C33.9547 24.8451 33.867 24.8806 33.8209 24.9056C33.7227 24.9411 33.6675 24.9509 33.6154 24.8806C33.5194 24.7438 33.4272 24.7695 33.3584 24.7869C33.2798 24.8126 33.2443 24.8164 33.2193 24.7575C33.0871 24.5738 32.3811 24.4922 32.2436 24.502C32.0856 24.5254 31.9307 24.4483 31.8143 24.3282C31.6798 24.1838 31.2505 24.0432 30.8371 24.0961C30.7585 24.0704 30.6942 24.0138 30.664 23.9253C30.5506 23.6789 30.6391 23.2965 30.6731 23.2262C30.6844 23.1899 30.6942 23.1219 30.6942 23.0222C30.704 22.8733 30.7131 22.6254 30.8325 22.3223C30.9504 21.9973 30.8869 21.887 30.7774 21.7819C30.7381 21.7517 30.704 21.7116 30.6844 21.6746C30.6731 21.6451 30.664 21.6232 30.6489 21.5899C30.5914 21.4751 30.5506 21.4146 30.9701 20.9483C31.1719 20.751 31.2475 20.5613 31.2127 20.3965C31.1825 20.3104 31.1129 20.1834 30.9021 20.0897C30.8718 20.0897 30.8507 20.0799 30.8507 20.0799C30.7857 20.0602 30.7585 20.0602 30.7683 19.94C30.7857 19.6967 30.6315 19.6574 30.506 19.6249C30.4425 19.6249 30.4032 19.5795 30.3783 19.5289C30.3292 19.4677 30.3133 19.3868 30.3398 19.3082C30.3783 19.188 30.3292 19.1155 30.2891 19.0739C30.2634 19.0293 30.2506 19.0165 30.2506 18.9515C30.2506 18.7822 30.1372 18.6748 29.9241 18.6469C29.8689 18.6469 29.8311 18.6522 29.8047 18.668C29.8047 18.6189 29.8047 18.5381 29.8047 18.4972C29.8047 18.4103 29.7865 18.2849 29.717 18.2697C29.6535 18.2486 29.5696 18.3181 29.5394 18.3657C29.4759 18.3589 29.392 18.3657 29.3519 18.4232C29.333 18.4406 29.3172 18.4814 29.3376 18.5381C29.3761 18.6121 29.333 18.6469 29.2295 18.721L29.225 18.7368C29.1214 18.792 29.1154 18.9167 29.1214 19.0165C29.1509 19.117 29.203 19.2099 29.2885 19.2402C29.3625 19.2568 29.3761 19.3127 29.3761 19.3203C29.3761 19.3203 29.358 19.3392 29.327 19.3392C29.1645 19.3127 29.1411 19.4442 29.1214 19.5773C29.1214 19.6196 29.1154 19.646 29.1154 19.6853C29.0859 19.8138 29.0564 19.8614 29.0564 19.8614C29.0564 19.8614 29.0164 19.8614 28.9922 19.8138C28.9332 19.7148 28.8705 19.6574 28.7889 19.646C28.7352 19.6324 28.6816 19.646 28.6166 19.6853C28.6166 19.7057 28.5788 19.7057 28.5463 19.7057C28.4896 19.6853 28.445 19.6438 28.4087 19.6037C28.3762 19.5357 28.3158 19.4896 28.2591 19.4896C28.2039 19.4783 28.1495 19.4896 28.0943 19.5289C28.0255 19.5954 27.956 19.6037 27.8192 19.5795C27.7406 19.5667 27.6544 19.4896 27.5652 19.4057C27.5214 19.3634 27.4738 19.3203 27.4186 19.2855C27.3846 19.2432 27.3597 19.1979 27.3189 19.1623C27.2554 19.0837 27.176 18.9968 27.0097 18.9855C26.9319 18.9605 26.9251 18.9605 26.9251 18.9605C26.9251 18.9605 26.9251 18.9515 26.9251 18.9416C26.9251 18.9039 26.9115 18.8668 26.8412 18.8668C26.7739 18.8464 26.749 18.7527 26.749 18.721C26.7581 18.6748 26.8178 18.4103 26.6485 18.2849C26.5344 18.2108 26.5593 17.9833 26.5669 17.9357C26.5963 17.907 26.6311 17.8503 26.6198 17.7603C26.5993 17.6938 26.5593 17.6523 26.4822 17.6205C26.359 17.5548 26.359 17.5026 26.353 17.4414C26.353 17.418 26.353 17.3908 26.3333 17.3666C26.3159 17.291 26.2388 17.1444 26.0038 17.1444C25.8844 17.1444 25.8594 17.1209 25.8209 17.0559C25.7861 17.0272 25.7619 16.9789 25.7121 16.9335C25.6531 16.8783 25.5904 16.8708 25.5496 16.8708C25.4611 16.9025 25.4165 16.994 25.3765 17.0832C25.3667 17.099 25.3568 17.1209 25.3568 17.127C25.2782 17.2706 25.3961 17.5381 25.4165 17.5737V17.5827H25.4369L25.6312 17.6742C25.6312 17.7097 25.6531 17.7717 25.6826 17.8223C25.7226 17.8548 25.7755 17.8911 25.842 17.8911C25.9985 17.907 26.0438 17.9705 26.0529 18.1466C26.068 18.2191 26.0438 18.2191 26.0438 18.2191C26.0438 18.2191 26.0181 18.2191 26.0076 18.2282L26.0038 18.2191C26.0038 18.2191 25.9985 18.2191 25.9985 18.2282C25.9335 18.2282 25.8352 18.1957 25.7377 18.1171C25.6078 18.0188 25.4861 17.9833 25.3803 17.9455C25.3425 17.9236 25.2926 17.907 25.2548 17.8911C25.2147 17.8699 25.186 17.8548 25.1596 17.8911C25.0968 17.907 25.0772 17.9765 25.047 18.0392C25.0371 18.0816 25.0122 18.1193 24.9842 18.1466C24.9684 18.1836 24.9434 18.1957 24.9026 18.1836C24.8746 18.1783 24.8353 18.1193 24.8353 18.0218C24.8353 17.8911 24.7953 17.8503 24.7409 17.808C24.7121 17.7944 24.6917 17.7717 24.6819 17.7301C24.6479 17.6523 24.5746 17.6523 24.5224 17.6455C24.5088 17.6455 24.4892 17.6455 24.4892 17.6455H24.4846C24.4605 17.5381 24.3607 17.4384 24.2428 17.4573C24.1838 17.4686 24.1574 17.427 24.1098 17.3666H24.0992C24.1204 17.1119 23.9465 17.062 23.9019 17.0559L23.7636 16.9584C23.7546 16.9025 23.719 16.7801 23.6351 16.7567L23.6268 16.7453H23.6019C23.3903 16.7567 23.292 16.6425 23.292 16.6425V16.6267C23.2807 16.6206 22.9315 16.341 22.7237 16.2193C22.5551 16.1195 22.5665 16.0455 22.574 15.9071C22.574 15.8951 22.574 15.8709 22.574 15.8709V15.8338L22.5551 15.8263C22.4365 15.697 22.3631 15.6698 22.3095 15.6812C22.2384 15.7069 22.2309 15.7938 22.2195 15.8882C22.2067 15.9412 22.2014 16.0235 22.1712 16.0455C22.0465 16.0976 21.9679 16.3183 21.9391 16.7022C21.9293 16.8398 22.0034 16.9222 22.0691 16.9335C22.116 16.9471 22.2067 16.9101 22.2543 16.7725C22.28 16.7453 22.2944 16.7204 22.2944 16.7204C22.3201 16.7022 22.3631 16.7249 22.3956 16.7453C22.4523 16.7567 22.506 16.7801 22.5551 16.7567C22.5989 16.7567 22.6541 16.7567 22.6881 16.7997C22.7237 16.8398 22.7032 16.8708 22.7032 16.8708C22.6844 16.9025 22.636 16.9584 22.6602 16.994C22.6844 17.0272 22.7093 17.0272 22.7289 17.0272C22.7743 17.0832 22.8378 17.2343 22.9013 17.3772C22.8718 17.3908 22.8257 17.3908 22.8075 17.3983C22.7826 17.3983 22.7826 17.3983 22.7743 17.3983C22.1568 17.526 21.9293 18.1783 21.8802 18.297C21.2801 18.4776 21.141 18.7482 21.0549 18.8948C21.0375 18.9167 21.0284 18.9416 21.0209 18.9515C20.9627 19.0218 20.9627 19.1774 20.9627 19.3392C20.9627 19.4178 20.9627 19.4994 20.9392 19.5591C20.9332 19.6037 20.9271 19.6037 20.9037 19.6249C20.8637 19.6438 20.8115 19.6642 20.745 19.7571C20.612 19.94 20.612 20.1313 20.6316 20.649C20.6316 20.8447 20.6762 20.9709 20.7798 21.0367C20.9181 21.1319 21.1289 21.0586 21.3519 20.9823C21.4554 20.9422 21.4902 20.9422 21.4902 20.9422C21.5061 20.9483 21.5091 20.9483 21.5091 20.9641C21.5091 20.9997 21.5091 21.0586 21.5922 21.0926C21.7041 21.336 21.9679 21.6413 22.4863 21.7721C22.7569 22.574 23.0003 22.6707 23.3351 22.8264C23.3903 22.8513 23.4424 22.8657 23.4825 22.8982C23.5467 22.9277 23.5921 22.9504 23.6351 22.9761C23.8876 23.1083 23.911 23.1083 24.2231 22.9103L24.2829 22.8733C24.4151 22.7901 24.5224 22.7773 24.592 22.8355C24.6819 22.9103 24.6917 23.0743 24.6819 23.1446C24.6562 23.2753 24.6328 23.6706 24.9071 23.7795C25.0643 23.8384 25.0968 23.8815 25.1701 23.9918C25.186 24.0243 25.2291 24.0886 25.2782 24.1354C25.1701 24.3561 25.2646 24.6471 25.3047 24.7658C25.3047 24.7695 25.3047 24.7786 25.3047 24.7786C25.2291 24.8126 25.1271 24.8285 25.0863 24.7786C25.047 24.7212 25.0077 24.6887 24.9517 24.6826C24.8784 24.6713 24.8051 24.7166 24.6917 24.802C24.5587 24.9411 24.3562 24.8285 24.2428 24.7318C24.0992 24.5738 23.7636 24.5897 23.5618 24.7438C23.3903 24.8965 23.2807 24.8285 23.0781 24.7V24.6887C22.8899 24.5738 22.5408 24.6139 22.4659 24.7166C22.4365 24.7438 22.4365 24.802 22.4962 24.8353C22.6148 24.9267 22.5219 25.1437 22.5219 25.1437L22.506 25.1595V25.1754C22.506 25.1754 22.506 25.6712 22.4659 25.9388C22.3956 25.9894 22.3843 26.0491 22.3843 26.0831C22.3843 26.0967 22.3843 26.1065 22.3843 26.1065C22.3095 26.1141 22.0434 26.2184 21.9097 26.3643C21.8492 26.4232 21.8205 26.5041 21.8311 26.5925C21.8492 26.7021 21.8311 26.7255 21.8311 26.7255C21.8114 26.7361 21.7275 26.6885 21.6776 26.656C21.6323 26.6243 21.5786 26.5925 21.5257 26.5661C21.4056 26.5086 21.3073 26.458 21.24 26.4066C21.2189 26.3832 21.2 26.3643 21.1705 26.3544C21.0707 26.297 20.8825 26.3544 20.8115 26.4157L20.7956 26.4451L20.8055 26.4723C20.9181 26.7799 20.7049 27.0732 20.7049 27.0732V27.077C20.7049 27.077 20.4147 27.6302 20.2265 27.7579C20.0247 27.9136 19.9764 28.0482 20.0489 28.2938L20.0648 28.3112H20.0882C20.2023 28.3323 20.2023 28.3603 20.2915 28.479C20.3316 28.5296 20.3807 28.609 20.4457 28.6913C20.8055 29.3058 21.8893 29.8946 22.2014 29.9709C22.8468 30.4334 23.2467 30.4334 23.5724 30.4334C23.676 30.4334 23.7636 30.4334 23.8589 30.4334C23.9465 30.4523 24.0115 30.4871 24.0652 30.5581L24.047 30.5748L24.0652 30.602C24.0652 30.602 24.075 30.602 24.0894 30.602C24.2035 30.8174 24.1574 31.2066 24.0894 31.3857C24.0153 31.4145 23.9609 31.4515 23.9412 31.5006C23.8536 31.6835 24.0115 31.9949 24.1204 32.1959C24.1445 32.2481 24.1627 32.3002 24.1733 32.3335C24.2428 32.4824 23.9609 32.83 23.7546 32.9653C23.5316 32.9653 23.4039 33.0198 23.3351 33.0878C23.2807 33.1603 23.292 33.2155 23.292 33.2155V33.2389C23.3298 33.2593 23.3547 33.3591 23.3298 33.437C23.3049 33.4611 23.2807 33.4823 23.2467 33.4974C23.1378 33.5269 23.0781 33.5624 23.0781 33.6153C23.0494 33.6803 23.0781 33.7347 23.128 33.8224L23.1469 33.8632C23.2021 33.935 23.1741 34.0053 23.1129 34.099C23.1031 34.1519 23.0781 34.2101 23.0781 34.2698C23.1129 34.7747 23.292 34.8359 23.4689 34.885C23.5067 34.885 23.5316 34.9168 23.5724 34.9175C23.5618 34.9614 23.5618 34.9924 23.5724 35.0203C23.6268 35.1821 23.8589 35.3446 24.1574 35.4579C24.298 35.5078 24.3645 35.5297 24.3713 35.5622C24.3803 35.5675 24.3713 35.5879 24.3607 35.6174C24.3607 35.6454 24.3471 35.6628 24.335 35.6922C24.1574 35.7655 24.1627 35.9386 24.1733 36.08C24.1733 36.0943 24.1733 36.114 24.1733 36.1374C23.9805 36.2689 23.9609 36.3815 23.9805 36.5432C23.9178 36.612 23.8876 36.6687 23.911 36.7231C23.9276 36.7987 24.0115 36.8252 24.047 36.8373C24.0652 36.897 24.1786 37.0965 24.4892 37.1585H24.5187L24.5338 37.1403C24.592 37.0806 24.6479 37.0647 24.6721 37.0647C24.7053 37.0647 24.7257 37.0685 24.7499 37.0965C24.7696 37.1222 24.8051 37.1585 24.8353 37.1585C24.8353 37.1585 24.8588 37.1403 24.8837 37.1222C24.9336 37.0685 24.9336 37.0685 25.1701 37.1161L25.3425 37.1313C25.4717 37.1585 25.5496 37.2061 25.5397 37.2635C25.5397 37.3247 25.4513 37.398 25.3765 37.398C25.1293 37.398 24.8875 37.819 24.8353 37.9921C24.7499 38.1652 24.7499 38.791 24.9721 38.9172C25.047 38.961 25.047 39.0079 25.056 39.0956C25.0772 39.1862 25.0863 39.2913 25.1996 39.416C25.3765 39.6246 25.3667 39.8544 25.2548 39.9587C25.1596 40.0395 25.1157 40.1166 25.1052 40.2051C25.1052 40.2799 25.1596 40.3638 25.2291 40.4409C25.3765 40.5701 25.3425 40.6343 25.2291 40.756C25.0968 40.9042 25.2291 41.1778 25.3803 41.4687C25.5095 41.7129 25.5352 41.9925 25.4369 42.2449C25.3803 42.4082 25.406 42.4618 25.4369 42.5639C25.4611 42.6213 25.4808 42.7052 25.4808 42.8435C25.5004 43.1058 25.6078 43.2622 25.7377 43.4353C25.7755 43.5003 25.8352 43.5706 25.8738 43.6333C25.9154 43.7066 25.9433 43.7459 25.9584 43.7754C25.9985 43.8056 26.0038 43.8344 26.0076 43.8449C26.0076 43.8449 25.9985 43.8691 25.9584 43.8805C25.9584 43.9047 25.9335 43.9175 25.9055 43.95C25.7755 44.083 25.8269 44.1624 25.8594 44.2705C25.8594 44.3158 25.8942 44.3642 25.8942 44.436C25.9055 44.4972 25.9154 44.5478 25.9335 44.6189C25.9985 44.8214 26.0529 45.0686 25.9494 45.253C25.8594 45.2394 25.8269 45.253 25.8103 45.2825C25.7755 45.3044 25.7755 45.3202 25.7861 45.3475H25.7461L25.7619 45.4064C25.8549 45.739 25.7619 46.1199 25.7619 46.1199L25.7461 46.1471L25.7725 46.1599C25.7725 46.1599 25.9841 46.4381 26.1013 46.6036C26.1172 46.6436 26.1413 46.6686 26.1693 46.6943C26.192 46.7608 26.2388 46.8197 26.3159 46.8197C26.359 46.8281 26.4202 46.7729 26.5056 46.6822C26.5593 46.6036 26.5963 46.5167 26.5805 46.4381C26.5593 46.2952 26.4202 46.1841 26.3235 46.1002C26.192 45.9929 26.2313 45.5069 26.2388 45.3475C26.2388 45.2621 26.2645 45.2394 26.2751 45.2212C26.2895 45.2212 26.3235 45.2212 26.359 45.2212H26.3643C26.3235 45.674 26.3333 45.9219 26.4202 46.0171C26.4731 46.0851 26.5464 46.0851 26.5993 46.0851C26.6198 46.0851 26.6311 46.0964 26.6311 46.0964L26.6689 46.1002L26.6893 46.0851C26.8911 45.7979 26.8132 45.5069 26.7762 45.42C26.7762 45.4064 26.7762 45.4064 26.7762 45.3988C26.7762 45.3754 26.8503 45.3044 26.8911 45.2915C26.8881 45.423 26.7868 46.0851 26.8881 46.2023C26.9319 46.2952 26.9704 46.593 26.9251 46.6822C26.8329 46.8439 26.8503 46.9679 26.9803 47.0948C27.0249 47.1447 27.0604 47.1704 27.0899 47.1704C27.139 47.1704 27.1624 47.1334 27.207 47.0948C27.2365 47.0699 27.2788 47.0208 27.3453 46.958C27.4534 46.8847 27.4889 46.8439 27.4783 46.7729C27.4738 46.7396 27.4186 46.7139 27.3846 46.6943C27.3597 46.6822 27.3355 46.6761 27.3053 46.6686C27.2788 46.6436 27.2954 46.6058 27.3597 46.4872C27.3846 46.4207 27.4186 46.3194 27.4587 46.2023L27.4693 46.1841L27.4534 46.172C27.3846 46.0639 27.374 45.9672 27.3597 45.8357C27.3597 45.7715 27.3597 45.7125 27.3355 45.6369C27.3189 45.5644 27.3189 45.5228 27.3355 45.4994C27.3453 45.42 27.3189 45.3928 27.207 45.3202C27.0385 45.2212 27.0528 45.1079 27.0528 45.0935C27.0604 45.0686 27.0982 44.863 27.0642 44.7368C27.0528 44.6967 27.0642 44.6521 27.074 44.5886C27.0982 44.5244 27.1224 44.4685 27.1337 44.3642C27.1337 44.2705 27.1481 44.241 27.1481 44.241L27.2471 44.2909L27.2236 44.1934C27.2236 44.1707 27.207 44.1193 27.2471 44.0989C27.2788 44.0641 27.3355 44.0641 27.374 44.0641C27.5131 44.0989 27.5622 44.2259 27.5524 44.2969C27.5328 44.3642 27.498 44.343 27.498 44.343C27.4186 44.3355 27.3907 44.3702 27.3907 44.405C27.3453 44.5206 27.6166 44.9348 27.8041 45.0459C27.9862 45.1623 28.0074 45.3928 27.956 45.5644C27.9522 45.6014 27.9363 45.6407 27.9363 45.6777C27.9114 45.7155 27.9114 45.7715 27.9016 45.7979C27.9016 45.7979 27.8872 45.7881 27.8827 45.7715C27.8192 45.6309 27.7406 45.6097 27.6952 45.6188C27.6023 45.6369 27.5524 45.739 27.5328 45.9075C27.5214 46.0171 27.5328 46.0851 27.5879 46.1093C27.6446 46.1471 27.7051 46.1199 27.7406 46.0964C27.758 46.1199 27.7905 46.2023 27.8298 46.3557C27.8872 46.5401 27.9673 46.6436 28.0595 46.6436C28.154 46.6686 28.2591 46.6036 28.3513 46.4381C28.3762 46.4109 28.4087 46.3708 28.42 46.3496C28.5228 46.2136 28.6113 46.1199 28.445 45.9377C28.3513 45.8357 28.3611 45.7488 28.3762 45.6309C28.3853 45.5598 28.3853 45.4737 28.3853 45.3928V45.3754C28.4344 45.3988 28.4896 45.42 28.51 45.4419C28.5387 45.4555 28.5788 45.4737 28.6166 45.4555C28.6748 45.4419 28.6974 45.3754 28.7216 45.2825L28.7413 45.2212C28.8047 45.0459 28.7564 44.8713 28.5871 44.7368C28.4994 44.6521 28.4087 44.4972 28.3762 44.3929C28.4707 44.405 28.5463 44.3702 28.5984 44.3188C28.6491 44.2705 28.6491 44.1624 28.5984 44.0641C28.5871 44.018 28.6113 43.9734 28.6324 43.9364C28.6506 43.9175 28.6664 43.9047 28.6816 43.9175C28.6974 43.9251 28.7156 43.981 28.7057 44.1193C28.6506 44.5622 28.8743 44.8063 28.8833 44.8214L28.9521 44.8947L28.962 44.7882C28.962 44.7882 28.9922 44.5622 29.1252 44.2032C29.2673 43.8608 29.2295 43.7845 29.0859 43.5955L29.0458 43.5517C29.0269 43.5245 29.0081 43.4897 29.0164 43.4504C29.0413 43.3431 29.194 43.2161 29.2537 43.1806V43.1708C29.265 43.235 29.2885 43.297 29.2885 43.3696C29.4124 43.7331 29.615 43.303 29.7865 42.7702C29.9407 42.2449 30.0238 41.5557 30.4191 42.1384C30.5506 42.3447 30.6844 42.5336 30.8076 42.7052C30.8008 42.7332 30.7774 42.7483 30.7622 42.7702H30.7585C30.664 43.096 30.729 43.4723 30.8227 43.6877C30.8371 43.8019 30.8189 44.009 30.729 44.1533C30.5756 44.4163 30.8189 44.6703 30.9021 44.7549C31.054 44.8962 31.0049 45.253 31.0049 45.253H31.0993C31.0993 45.253 31.1424 44.8713 30.9701 44.6877C30.7683 44.4972 30.7131 44.3355 30.8008 44.2032C30.8718 44.0989 30.9021 43.9734 30.9157 43.8449C30.9157 43.8449 30.9467 43.8608 30.9504 43.8691C30.9255 44.3642 30.989 44.6703 31.1371 44.7942C31.2475 44.8962 31.3601 44.8947 31.4394 44.8713C31.4901 44.9794 31.5876 45.0179 31.6556 45.0179C31.6722 45.0179 31.6904 45.0179 31.6904 45.0179C31.6556 45.1903 31.5762 45.5886 31.7992 45.7488C31.8838 45.81 31.9466 45.8289 32.0116 45.7979C32.0289 45.9015 32.1098 45.9219 32.2307 45.9891C32.2678 45.9891 32.2957 46.0042 32.326 46.0277C32.5935 46.1471 32.7704 46.0171 33.0326 45.8153C33.2737 45.6369 33.3236 45.358 33.3236 45.2945C33.3236 45.2825 33.3274 45.253 33.3622 45.2212C33.3274 45.2825 33.3274 45.3475 33.3274 45.4064V45.423C33.3622 45.6528 33.3622 45.7246 33.4211 45.7488C33.4513 45.7715 33.5058 45.7488 33.539 45.739C33.6841 45.674 33.7227 45.6309 33.6887 45.4555C33.6539 45.3202 33.7227 45.1079 33.8028 45.0459C33.867 44.9885 33.9192 44.8947 33.8958 44.8214C33.867 44.764 33.8209 44.7209 33.6841 44.7209H33.6675L33.6486 44.7262C33.6395 44.7368 33.4513 44.9303 33.372 45.1464C33.3924 45.0837 33.3924 45.0179 33.3274 44.9514C33.2911 44.9167 33.2632 44.8962 33.2193 44.8962C33.1604 44.8962 33.1218 44.9348 33.0871 44.9794C33.0765 44.9968 33.0561 45.0179 33.0326 45.0459C33.0017 45.0459 32.9722 45.0701 32.9722 45.0701C32.9722 45.0701 32.9382 45.058 32.9087 44.9794C32.8785 44.9348 32.8452 44.8962 32.8051 44.8947C32.7462 44.8713 32.6615 44.8947 32.5935 44.8962L32.5973 44.8947C32.617 44.863 32.6275 44.8441 32.6517 44.8063C32.7167 44.7209 32.8051 44.5886 32.8051 44.3702C32.8301 44.3702 32.8452 44.3702 32.8785 44.3642C32.9722 44.3355 32.982 44.343 33.0017 44.3702C33.0168 44.4163 33.0561 44.4768 33.1747 44.5244C33.4007 44.6189 33.5995 44.4972 33.6932 44.405C33.7408 44.4685 33.7915 44.4972 33.8557 44.4972C33.9101 44.4768 33.9683 44.4375 34.0091 44.405C34.26 44.3702 34.6636 44.0989 34.9304 43.9047C34.9508 43.9016 34.9705 43.879 34.9856 43.8691C34.9644 43.95 34.9508 44.0392 34.935 44.1193C34.8375 44.1193 34.7385 44.1533 34.6561 44.2077C34.4218 44.3929 34.3931 44.764 34.3931 44.7882V44.8214C34.4581 44.8947 34.5215 44.8962 34.6092 44.8947C34.7188 44.8441 34.8617 44.7209 34.935 44.5055C34.9569 44.7209 35.0053 44.8441 35.0053 44.8554L35.0211 44.8947H35.0536L35.3204 44.8554C35.3567 44.8569 35.4444 44.8713 35.5086 44.8252C35.5464 44.8063 35.566 44.764 35.5819 44.7368C35.597 44.6521 35.7777 44.5206 35.9266 44.405C35.9961 44.3642 36.0505 44.2969 36.1148 44.2705C36.312 44.0989 36.5478 43.5517 36.6174 43.1012C36.6619 42.7332 36.7405 42.6432 36.7602 42.6213C36.7753 42.6153 36.7897 42.607 36.7897 42.607C36.8388 42.6243 36.9325 42.6432 37.027 42.6311C37.0406 42.7702 37.0716 43.1995 36.9189 43.4723C36.7171 43.8449 36.6521 44.009 36.6521 44.1329C36.6521 44.2387 36.6619 44.3642 36.7405 44.3929C36.7897 44.4163 36.8501 44.405 36.9287 44.343C37.1252 44.1934 37.4427 43.6515 37.4253 43.297C37.4253 43.297 37.392 42.4452 37.392 42.3787C37.4253 42.2699 37.4011 42.152 37.3762 41.9925C37.3482 41.8663 37.3074 41.7129 37.3074 41.542C37.3074 41.4884 37.2998 41.3508 37.3074 41.3183C37.3248 41.3183 37.3482 41.3327 37.3611 41.3508C37.4132 41.3682 37.5062 41.4098 37.6256 41.4317C37.9528 41.4687 38.556 41.4098 38.9709 41.3327L38.9807 41.3183L38.989 41.3123C39.0502 41.2375 39.1425 41.211 39.1976 41.1853C39.2664 41.1581 39.3155 41.1407 39.3155 41.081C39.3155 41.0772 39.3155 41.0659 39.3155 41.0659C39.3155 40.8135 39.4259 40.6343 39.6564 40.5414C40.0116 40.4152 39.9814 40.2013 39.9368 40.0395C40.456 40.4923 41.4461 41.9729 41.626 42.4618C41.5995 42.8435 41.7023 43.0143 41.7983 43.1708C41.8066 43.1995 41.8361 43.2607 41.8565 43.297C41.7983 43.4791 41.9245 43.7459 42.1127 43.9175C42.1951 44.0029 42.1951 44.0452 42.22 44.1624C42.2268 44.2531 42.2268 44.3642 42.2797 44.5244C42.1633 44.9015 42.3387 45.1653 42.4581 45.3316L42.4725 45.3694C42.2956 46.0451 42.4037 46.1652 42.5949 46.2461C42.5949 46.2461 42.5949 46.2461 42.6055 46.2461C42.6244 46.4305 42.7037 46.5257 42.8269 46.6943C42.8579 46.7185 42.8919 46.7608 42.9078 46.8024C42.8919 46.8537 42.8677 46.9225 42.8443 47.0004C42.7483 46.9444 42.7582 46.8122 42.7582 46.8122V46.8024C42.7582 46.7729 42.7438 46.5257 42.5949 46.4872C42.5118 46.4479 42.4581 46.3315 42.4385 46.2952L42.4226 46.2332L42.3803 46.265C42.2442 46.3557 42.0583 46.5681 42.1875 46.8024C42.3387 47.0366 42.3939 47.2294 42.3546 47.3677C42.3387 47.4229 42.3546 47.4984 42.3583 47.5604C42.3818 47.6624 42.3818 47.7002 42.3304 47.7206C42.2268 47.7599 42.1762 47.8023 42.1633 47.8612C42.1633 47.9051 42.1875 47.964 42.2797 48.0154C42.4037 48.094 42.5564 48.1764 42.6569 48.0691C42.6856 48.029 42.7325 48.0252 42.7702 48.0154C42.7702 48.1832 42.7702 48.3124 42.7702 48.3381V48.3487L42.7786 48.3646C42.7816 48.3706 43.2759 48.9919 43.2237 49.4544C43.1542 49.96 43.5434 50.4543 43.7596 50.6062C43.978 50.7461 44.111 50.9524 44.1201 51.1255C44.1352 51.3507 44.3015 51.7679 44.5146 51.9032C44.6227 51.9667 44.6771 52.1133 44.7368 52.2856C44.7912 52.4232 44.8343 52.5789 44.9197 52.7262C45.0361 52.9212 45.1472 52.9348 45.1956 52.9348C45.2644 52.9348 45.3135 52.9001 45.349 52.8366C45.3679 52.7912 45.3679 52.7262 45.3286 52.6794C45.2538 52.5834 45.2447 52.4851 45.2213 52.3249V52.2206L45.1956 52.1881L45.1805 52.1722C45.0361 52.1133 44.9643 51.8012 44.9484 51.7006V51.687L44.9326 51.6802C44.7912 51.4973 44.6529 51.2509 44.6688 51.1776C44.7104 51.0393 44.6529 50.7279 44.5282 50.5609V50.5549C44.3793 50.4286 44.371 50.344 44.3521 50.2593C44.3423 50.1906 44.337 50.1263 44.2539 50.0243C44.0944 49.8807 44.1836 49.5134 44.1836 49.5134V49.4998C44.1488 49.3222 44.1488 49.1249 44.1488 49.0675C44.3793 49.0546 44.5048 48.7379 44.5282 48.6571C44.5282 48.6472 44.5282 48.6314 44.5282 48.6193C44.5388 48.5701 44.5645 48.4976 44.5834 48.4726C44.597 48.4726 44.6076 48.4726 44.6076 48.4726C44.693 48.4976 44.7655 48.4976 44.8109 48.4553C44.8562 48.4341 44.8955 48.3774 44.9137 48.2905C44.9197 48.2142 44.9197 48.2142 45.0074 48.2142C45.0361 48.2142 45.0663 48.2142 45.1102 48.2142C45.1502 48.2142 45.1956 48.2399 45.2447 48.2905C45.3135 48.3706 45.3331 48.4726 45.3286 48.5346C45.3135 48.6079 45.3535 48.7047 45.4367 48.781C45.5115 48.8324 45.6506 48.8619 45.8614 48.7546C45.9446 48.7122 46.005 48.7047 46.0489 48.7334C46.1721 48.781 46.2303 48.9798 46.296 49.137C46.3089 49.1907 46.3255 49.2496 46.3497 49.2851C46.4086 49.4166 46.4706 49.4915 46.5371 49.4786C46.5772 49.4786 46.6346 49.4673 46.6656 49.3411C46.6852 49.2851 46.7094 49.2851 46.754 49.2851C46.788 49.2851 46.8523 49.2965 46.8712 49.2496C46.9324 49.1718 47.0934 48.9601 46.9422 48.8211Z" fill="#FFF200"/>
<path id="Vector_4" fill-rule="evenodd" clip-rule="evenodd" d="M38.1071 41.6433C38.092 41.6009 38.058 41.5752 38.033 41.5458C37.9756 41.4982 37.8856 41.474 37.8274 41.4982C37.8274 41.4982 37.7874 41.4982 37.7534 41.4982C37.7012 41.4982 37.6393 41.4982 37.6037 41.5458C37.5599 41.5866 37.5501 41.6486 37.5856 41.7309V41.7476L37.5871 41.7574C37.5871 41.7574 37.7231 41.9607 37.6393 42.2585C37.5501 42.5578 37.6037 42.7958 37.6037 42.8193C37.6037 42.9039 37.5871 43.8789 37.4715 44.1706L37.4662 44.1865C37.4662 44.2258 37.4715 44.2787 37.5062 44.3354C37.4556 44.2704 37.3921 44.253 37.3581 44.253C37.3248 44.253 37.2923 44.253 37.25 44.2258L37.2115 44.1933L37.1896 44.2409C37.179 44.2704 37.0853 44.4767 37.1601 44.6067C37.1896 44.6521 37.25 44.6876 37.3075 44.6967C37.4556 44.7208 37.5206 44.6521 37.5501 44.6067C37.5871 44.5243 37.5758 44.42 37.5206 44.3641C37.5206 44.3641 37.5501 44.3702 37.5758 44.3928C37.6037 44.4049 37.6778 44.4163 37.7632 44.3286C37.7874 44.2968 37.8274 44.2704 37.8607 44.2258C38.0292 44.083 38.3149 43.8343 38.3935 43.3944C38.4918 42.851 38.4223 42.7482 38.3089 42.5638V42.5578C38.2802 42.5298 38.2643 42.5011 38.2409 42.4618C38.098 42.2449 37.9778 42.0385 38.1071 41.8791C38.2053 42.0748 38.3671 42.3446 38.4918 42.3666C38.5077 42.3764 38.547 42.3666 38.5704 42.3492C38.6702 42.2131 38.5847 42.0484 38.4684 41.8095C38.3671 41.6213 38.2053 41.6009 38.1071 41.6433Z" fill="#FFF200"/>
<path id="Vector_5" fill-rule="evenodd" clip-rule="evenodd" d="M40.3206 41.4982C40.2292 41.0658 39.8415 40.7718 39.8233 40.7688L39.778 40.7386L39.7462 40.7877C39.4621 41.6213 39.6215 41.8949 39.6457 41.9335C39.6692 41.9569 39.9367 42.4293 40.0115 42.5789C40.0554 42.6598 40.0954 42.6946 40.1513 42.6946C40.239 42.7052 40.332 42.6311 40.4801 42.4452C40.6124 42.2585 40.5345 42.0907 40.4461 41.8791C40.4053 41.7838 40.3667 41.6576 40.3206 41.4982Z" fill="#FFF200"/>
<path id="Vector_6" fill-rule="evenodd" clip-rule="evenodd" d="M27.745 46.4667C27.68 46.4379 27.6112 46.4833 27.5621 46.5256C27.5213 46.58 27.4978 46.6465 27.5213 46.7138C27.5523 46.8121 27.68 46.8536 27.7684 46.8279C27.8296 46.8022 27.9014 46.7395 27.8682 46.6035C27.8327 46.5022 27.7903 46.4833 27.745 46.4667Z" fill="#FFF200"/>
<path id="Vector_7" fill-rule="evenodd" clip-rule="evenodd" d="M29.225 46.1598C29.2296 46.1001 29.2296 46.0397 29.1411 45.989C29.1056 45.9717 29.0565 45.9218 29.0414 45.8689C29.0081 45.7978 28.9764 45.7389 28.9288 45.7154C28.8834 45.7124 28.8502 45.7154 28.8199 45.7487H28.8048V45.7714C28.8048 45.7714 28.6975 46.017 28.8547 46.184C29.0081 46.3193 29.0081 46.382 28.9522 46.4478C28.9136 46.5166 28.9 46.5929 28.9288 46.6436C28.9386 46.6723 28.9922 46.7214 29.1154 46.7214C29.2031 46.7214 29.2651 46.6942 29.2885 46.6466C29.3271 46.5801 29.3172 46.4932 29.2537 46.3707C29.2031 46.2649 29.2031 46.2135 29.225 46.1598Z" fill="#FFF200"/>
<path id="Vector_8" fill-rule="evenodd" clip-rule="evenodd" d="M29.7078 45.9491C29.6587 45.9219 29.6148 45.9015 29.5695 45.8509C29.4372 45.739 29.4705 45.581 29.4954 45.4737C29.5105 45.4065 29.4758 45.3316 29.4372 45.2651C29.376 45.2077 29.3027 45.1843 29.2536 45.1903C29.1795 45.1956 29.0858 45.1291 29.0268 45.1079L28.9921 45.0701L28.952 45.1193C28.85 45.3044 28.8742 45.4994 28.9172 45.5886C28.952 45.7246 29.0314 45.8289 29.0858 45.8357C29.0858 45.8509 29.1054 45.8509 29.1213 45.869C29.1742 45.869 29.2536 45.9015 29.2883 46.0277C29.3329 46.2333 29.4304 46.265 29.5392 46.3119C29.5392 46.3195 29.5642 46.3195 29.5793 46.3315C29.6587 46.3708 29.729 46.3708 29.7864 46.3315C29.8446 46.3043 29.8756 46.2461 29.8899 46.1842C29.8998 46.1003 29.8166 46.0398 29.7078 45.9491Z" fill="#FFF200"/>
<path id="Vector_9" fill-rule="evenodd" clip-rule="evenodd" d="M30.2187 45.6014C30.1817 45.581 30.1371 45.5599 30.1175 45.5425L30.1114 45.5176C30.0472 45.4201 29.9406 45.253 30.0132 45.058C30.0449 44.9885 30.0683 44.9348 30.1016 44.8714C30.1522 44.764 30.2021 44.6703 30.1696 44.6068C30.1522 44.597 30.1371 44.5758 30.0819 44.5622C30.0237 44.5479 29.9542 44.5479 29.9051 44.5479C29.9807 44.3703 29.9542 44.0642 29.9406 44.0241L29.8597 44.0392C29.8688 44.1934 29.8597 44.4768 29.8046 44.5479C29.6882 44.6703 29.5189 45.0686 29.5695 45.3044C29.5793 45.3203 29.5793 45.3475 29.5846 45.3694C29.6285 45.5886 29.7078 45.9672 30.1371 45.8728C30.289 45.8509 30.354 45.8153 30.3578 45.7715C30.3782 45.6959 30.289 45.6528 30.2187 45.6014Z" fill="#FFF200"/>
<path id="Vector_10" fill-rule="evenodd" clip-rule="evenodd" d="M34.3 45.1811C34.3189 45.1289 34.3287 45.1078 34.3453 45.0685C34.3929 44.9438 34.4579 44.7941 34.3 44.7208C34.2561 44.6702 34.1911 44.652 34.142 44.6392C34.0679 44.6067 34.037 44.5885 34.0233 44.5364C34.0233 44.5243 34.0135 44.5243 34.0135 44.5243L33.9311 44.5621C33.9311 44.5674 34.037 44.8062 33.8994 45.0178C33.7762 45.1985 33.7225 45.3201 33.7626 45.3987C33.7913 45.4343 33.8208 45.4554 33.8669 45.4448C34.1065 45.4229 34.2561 45.3473 34.3 45.1811Z" fill="#FFF200"/>
<path id="Vector_11" fill-rule="evenodd" clip-rule="evenodd" d="M35.0686 44.9794C35.0686 44.9439 35.0346 44.9348 35.0346 44.9348C35.0142 44.9303 34.9855 44.9348 34.9643 44.9514C34.9507 44.9794 34.9152 44.9794 34.8487 44.9703C34.7935 44.9703 34.6998 44.9703 34.5977 45.018C34.4133 45.1291 34.4579 45.507 34.4723 45.5599L34.5569 45.5425C34.5569 45.5228 34.5977 45.5122 34.6794 45.4994C34.7481 45.4737 34.8426 45.4556 34.9152 45.383C35.0346 45.2825 35.0996 45.058 35.0686 44.9794Z" fill="#FFF200"/>
<path id="Vector_12" fill-rule="evenodd" clip-rule="evenodd" d="M35.7246 45.0703C35.745 45.0582 35.7699 44.9969 35.745 44.9516C35.711 44.8964 35.6309 44.8949 35.5462 44.8949C35.4283 44.8715 35.3603 44.935 35.2658 45.0461C35.2371 45.0461 35.2159 45.0703 35.1872 45.1035C35.0345 45.2471 35.0776 45.4066 35.0776 45.4202L35.0995 45.4451H35.1184C35.4978 45.4814 35.6717 45.1814 35.7246 45.0703Z" fill="#FFF200"/>
<path id="Vector_13" fill-rule="evenodd" clip-rule="evenodd" d="M30.8869 45.129C30.8718 44.9885 30.837 44.7209 30.6156 44.5886C30.6639 44.3642 30.639 43.6877 30.4712 43.4897C30.3072 43.3212 30.4327 42.9697 30.4327 42.9675L30.3397 42.9319C30.3397 42.9554 30.2097 43.3431 30.4032 43.5517C30.5468 43.7097 30.5755 44.3188 30.5347 44.5244C30.2996 44.3702 30.1409 44.0989 30.1409 44.083L30.0684 44.1329C30.0684 44.1533 30.2505 44.4685 30.506 44.6189C30.4765 44.6521 30.4591 44.6967 30.4591 44.6967C30.3881 44.8569 30.3578 44.8962 30.4425 44.9794C30.4032 45.0179 30.354 45.0701 30.3782 45.1986C30.3881 45.3988 30.4032 45.42 30.506 45.4812C30.5347 45.5069 30.5755 45.5175 30.6156 45.5598C30.6942 45.6309 30.7584 45.6014 30.8007 45.5734C30.8869 45.5122 30.9156 45.3044 30.8869 45.2076C30.8869 45.1955 30.8869 45.1698 30.8869 45.129Z" fill="#FFF200"/>
<path id="Vector_14" fill-rule="evenodd" clip-rule="evenodd" d="M34.0483 45.5645C33.9584 45.5645 33.8994 45.6665 33.8669 45.7489C33.8601 45.8154 33.8669 45.8728 33.8957 45.9076C33.9546 45.9492 34.1224 45.9718 34.1912 45.9076C34.2267 45.8728 34.2841 45.798 34.2108 45.6741C34.1496 45.5645 34.0823 45.5599 34.0483 45.5645Z" fill="#FFF200"/>
<path id="Vector_15" fill-rule="evenodd" clip-rule="evenodd" d="M34.4133 45.6368C34.3929 45.6307 34.3574 45.6307 34.3408 45.6406C34.2841 45.6776 34.2402 45.7879 34.2599 45.8688C34.2644 45.9217 34.3 45.989 34.3687 46.0169C34.4912 46.0608 34.5358 45.9928 34.5426 45.9671C34.5758 45.8688 34.507 45.6776 34.4133 45.6368Z" fill="#FFF200"/>
<path id="Vector_16" fill-rule="evenodd" clip-rule="evenodd" d="M35.7292 45.1464L35.7451 45.2529C35.7451 45.3474 35.7247 45.423 35.7111 45.5175C35.6854 45.6187 35.6801 45.6958 35.6801 45.7714C35.6718 45.7487 35.6521 45.7389 35.6446 45.7245C35.5909 45.6777 35.5274 45.6777 35.4881 45.7245C35.4443 45.7714 35.4382 45.8288 35.4738 45.9014C35.4979 45.9717 35.566 46.0609 35.6446 46.0609C35.6801 46.0639 35.7111 46.045 35.7247 46.017C35.7292 46.0042 35.7451 45.9891 35.7451 45.9891C35.7451 46.045 35.8033 46.0964 35.8577 46.0964C35.9227 46.1002 35.9764 46.0609 35.9764 45.9891C35.9764 45.9377 35.9718 45.9074 35.9423 45.8931C36.0285 45.8356 36.0602 45.788 36.0799 45.7389C36.1147 45.5424 35.8486 45.2529 35.8033 45.2212L35.7292 45.1464Z" fill="#FFF200"/>
<path id="Vector_17" fill-rule="evenodd" clip-rule="evenodd" d="M42.3937 45.6959C42.4383 45.5365 42.492 45.3831 42.3091 45.2395L42.2955 45.2213H42.2796C42.2796 45.2213 42.0332 45.2213 42.0332 45.5599C42.0332 45.8358 41.9894 46.3709 41.978 46.4873C41.978 46.5167 41.9894 46.5439 41.9894 46.5439C42.0151 46.5681 42.0385 46.5712 42.068 46.5583C42.1556 46.5258 42.2796 46.2953 42.3091 46.0172C42.3302 45.8728 42.3544 45.7882 42.3937 45.6959Z" fill="#FFF200"/>
<path id="Vector_18" d="M59.858 37.5137L61.8147 39.7448L64.4683 38.4229L62.959 40.9729L65.0412 43.0959L62.145 42.4452L60.774 45.0701L60.4936 42.1149L57.5815 41.6433L60.2963 40.4567L59.858 37.5137Z" fill="#E11837"/>
<path id="Vector_19" d="M55.6609 53.5032L56.1302 50.5775L53.4185 49.3713L56.3517 48.908L56.6668 45.949L58.0046 48.6079L60.9068 47.9836L58.808 50.09L60.2757 52.6559L57.6441 51.3008L55.6609 53.5032Z" fill="#E11837"/>
<path id="Vector_20" d="M8.12922 37.5137L6.17626 39.7448L3.5121 38.4229L5.02746 40.9729L2.95508 43.0959L5.83918 42.4452L7.21623 45.0701L7.49209 42.1149L10.4321 41.6433L7.70976 40.4567L8.12922 37.5137Z" fill="#E11837"/>
<path id="Vector_21" d="M12.3156 53.5032L11.8523 50.5775L14.5708 49.3713L11.6406 48.908L11.3247 45.949L9.97791 48.6079L7.08398 47.9836L9.17828 50.09L7.70978 52.6559L10.3392 51.3008L12.3156 53.5032Z" fill="#E11837"/>
<path id="Vector_22" d="M4.30581 25.1238C4.16372 25.535 3.98989 26.2311 3.9317 26.7798L4.61191 26.9045C4.61191 26.9045 3.38375 28.0926 3.37468 29.6427C3.35881 30.8097 4.47889 32.3001 4.94748 32.0257C5.18858 31.8904 5.43496 31.4536 5.18858 30.4159C5.1062 30.0259 5.27322 29.0532 5.49996 29.0532C5.71536 29.0676 6.21041 29.3223 6.45226 30.9109C6.76364 30.725 7.17631 30.4 7.17631 30.4C7.17631 30.4 6.70772 28.2521 5.81588 28.2589C4.64063 28.2747 4.86359 30.2148 4.51366 30.1907C4.27105 30.1831 3.6256 28.3601 5.18404 27.0768C5.44479 27.1244 7.96308 27.7434 7.96308 27.7434C8.02052 27.46 8.15883 26.7798 8.15883 26.7798L4.88928 25.9605L5.09108 25.3559L4.30581 25.1238Z" fill="#007355"/>
<path id="Vector_23" d="M7.30024 22.3035L8.34096 22.2196C8.4498 24.7871 7.47029 25.0274 6.86717 25.1105C6.03202 25.2088 3.60594 22.3224 7.23449 19.9084L6.6291 19.4996C6.74776 19.2101 7.08408 18.4989 7.45971 18.0394L8.10969 18.3969C8.10969 18.3969 7.84139 18.7528 7.6668 19.074L10.6529 20.7451C10.6529 20.7451 10.3922 21.2182 10.2297 21.5802C10.2297 21.5802 8.10969 20.4617 8.12934 20.4481C5.58384 21.0338 6.16504 24.7319 6.72962 24.7168C7.18083 24.7002 7.74389 24.3041 7.30024 22.3035Z" fill="#007355"/>
<path id="Vector_24" d="M25.4717 5.57408L26.3938 6.29057C26.3938 6.29057 27.1481 4.50842 28.2833 5.27555C28.903 5.69199 27.6023 7.586 25.9585 7.43408C24.6328 7.3192 23.292 6.10314 23.292 6.10314L22.9746 6.2354C22.9746 6.2354 24.6328 8.61765 27.4005 8.03116C28.3762 7.83087 29.4124 6.04645 28.9922 5.30049C28.5629 4.53789 26.8911 3.98012 25.4717 5.57408Z" fill="#007355"/>
<path id="Vector_25" d="M47.1189 9.23584C47.1189 9.23584 48.6071 10.5154 49.2457 12.2787C49.1845 12.3769 48.994 12.7352 48.994 12.7352C48.994 12.7352 48.9238 11.51 46.6443 10.0015C46.7093 9.86163 47.1189 9.23584 47.1189 9.23584Z" fill="#007355"/>
<path id="Vector_26" d="M51.9167 8.61755C51.9167 8.61755 57.6335 12.5401 61.2076 18.9417C62.2272 20.751 63.0563 22.8657 63.67 25.2087C63.8998 26.1179 63.3775 27.7957 62.8507 27.835C63.3692 28.1638 64.7001 29.4411 63.4425 30.8454C63.9595 30.8454 64.7742 30.7864 64.7742 30.7864C64.7742 30.7864 64.8589 31.9579 64.8725 32.434H64.097C64.1288 32.1876 64.0638 31.6684 64.0638 31.6684L60.6408 31.8354C60.6355 31.3449 60.5705 30.9731 60.5705 30.9731L62.2786 30.8847C62.2786 30.8847 63.3322 30.8038 63.2392 29.4812C63.1855 28.7526 62.333 28.219 62.0458 28.4117C61.7737 28.609 61.8145 29.2249 62.2642 29.791C62.0851 29.9377 61.4706 30.3511 61.4706 30.3511C61.4706 30.3511 60.4541 29.5741 61.4586 28.117C60.9068 27.8116 60.2757 27.077 60.3347 25.8231C60.5705 25.7959 61.3694 25.8231 61.3694 25.8231C61.3694 25.8231 61.0897 27.6952 61.9921 27.6174C62.2348 27.6053 63.274 27.1972 62.7963 24.8353C62.6678 24.2224 61.5024 21.0926 60.9068 20.2401C60.5705 20.4238 59.0944 21.1448 59.0944 21.1448C59.0944 21.1448 60.6839 22.639 61.0051 23.2754C60.9673 23.6049 60.6559 24.5096 60.6559 24.5292C60.0248 24.1619 59.4618 23.6789 58.1429 24.474C58.0099 24.3282 57.9404 24.1158 57.9404 24.1158C57.9404 24.1158 58.808 23.3895 59.9296 23.3373C59.8313 23.2119 59.0944 22.3442 58.0099 21.7517C57.9615 21.5642 57.8912 20.5931 57.8912 20.5931L60.4632 19.3664C60.4632 19.3664 58.9811 17.3008 56.7908 18.102C56.3577 18.2569 55.9972 19.5425 57.146 19.8751C57.106 20.0897 56.8195 20.6233 56.8195 20.6233C56.8195 20.6233 55.2233 19.7708 56.2376 18.0392C56.5686 17.483 58.059 16.966 59.3476 17.483C59.2388 17.3099 58.1353 15.6963 58.0099 15.5663C57.8323 15.6698 55.1575 17.4951 55.1575 17.4951L54.6262 16.8587L57.4189 14.8226L56.5837 13.8378L53.8855 15.9888L53.3618 15.3993C53.3618 15.3993 54.4078 14.6034 54.6753 14.3351C54.9557 14.0668 54.562 13.011 52.7707 13.5219C52.7768 13.1795 53.0186 11.0429 50.9455 11.1751C50.6046 11.1925 50.4588 11.2386 50.4142 11.42C50.3499 11.7284 50.7286 12.3005 51.6945 12.2393C51.7005 12.3466 51.7209 13.1228 51.7209 13.1228C51.7209 13.1228 49.5163 13.0412 50.0695 11.1396C50.2116 10.6378 52.4042 9.12242 53.1796 12.3837C53.4321 12.4048 54.4577 12.1335 55.0653 13.8907C55.2233 13.8197 55.9866 13.1795 55.9866 13.1795C55.9866 13.1795 53.9203 11.0036 51.4632 9.23579L51.9167 8.61755Z" fill="#007355"/>
<path id="Vector_27" d="M26.3589 62.5378L26.3333 63.2475C26.3333 63.2475 27.1979 63.4463 27.5879 63.9882C27.6506 63.7282 27.8191 63.407 27.8191 63.407C27.8191 63.407 27.5214 62.7003 26.3589 62.5378Z" fill="#007355"/>
<path id="Vector_28" d="M48.378 59.9932L48.4113 60.6432C48.4113 60.6432 47.6699 60.6152 46.9957 61.133C46.9451 60.9735 46.8188 60.4769 46.8188 60.4769C46.8188 60.4769 47.3494 60.031 48.378 59.9932Z" fill="#007355"/>
<path id="Vector_29" d="M11.3694 16.0455C11.3694 16.0455 10.5607 15.8882 10.3392 15.8709C10.2516 15.2307 10.9257 13.7501 11.9967 14.0494L11.3694 16.0455ZM37.0171 3.04207C37.1169 2.39663 35.4285 -0.139805 31.9465 1.25614C32.0115 1.51084 32.1189 2.12832 32.1189 2.12832C32.1189 2.12832 36.0505 0.617497 36.2719 2.98992C34.4218 2.79946 28.1495 2.4707 21.24 5.65257C16.4997 7.61158 12.302 11.6649 11.6846 12.4252L12.4396 13.2384C12.4396 13.2384 8.93725 12.4645 9.10051 16.7408C9.11562 17.127 9.80944 17.0363 9.90391 16.6841C10.0475 16.1052 10.9333 15.697 10.8796 16.9101C11.2016 16.8783 11.708 16.8783 11.708 16.8783L12.8099 13.6617L14.0683 14.9405C14.0683 14.9405 12.9218 15.075 12.59 15.7938C12.1622 16.7249 12.0874 18.006 11.3936 18.1624C11.2167 18.2108 10.5063 17.9455 10.3529 17.6455C10.3241 17.7717 10.3181 18.1957 10.3181 18.1957C10.3181 18.1957 10.9257 18.8268 11.6218 18.7822C11.9967 18.7527 12.9218 18.5464 13.3125 16.4445C13.3624 16.1996 13.5332 15.0909 14.7478 15.2504C15.0274 14.9639 15.1536 14.849 15.1536 14.849L12.8651 12.2846C12.8651 12.2846 14.3827 10.7738 15.4136 10.0724C15.3789 10.3468 15.3887 11.0965 15.9472 11.2537C17.8964 11.813 18.0982 10.0014 18.334 10.0498C18.566 10.1178 18.7195 11.7813 16.7159 12.1085C15.3789 12.3179 14.2739 11.6279 14.2293 11.7284C14.19 11.8395 14.088 12.1085 14.088 12.0896C15.0251 12.5915 17.1542 12.9135 18.3877 12.2846C19.5433 11.7087 19.8463 9.28717 17.6198 9.43228C17.3039 10.9665 16.4528 10.8917 16.2412 10.7526C16.016 10.6121 15.9268 9.44891 17.4648 8.59033C17.8004 8.68632 19.3158 8.83823 19.6808 8.61754C19.6649 8.92439 19.349 10.0498 20.2265 11.2938C20.4457 11.2696 20.7608 11.0965 20.7608 11.0965C20.7608 11.0965 19.8463 10.2909 20.8258 8.04616C20.7049 7.91088 20.3724 7.58589 20.3724 7.58589C20.3724 7.58589 19.9763 8.34168 19.0286 8.32581C18.4912 8.31145 18.0997 8.38627 18.0574 8.19808C18.2138 8.13006 20.4056 6.84446 21.2287 6.47185L22.5218 9.63559C22.7826 9.37938 23.3298 9.29851 23.3298 9.29851L22.0434 6.12797C22.0434 6.12797 26.6893 3.73135 33.7567 3.64822C33.9313 3.64293 34.1066 4.28006 33.7408 4.40703C33.2737 4.2861 32.8943 4.66778 32.8943 4.66778C32.8255 4.28006 31.2127 3.08137 30.1228 4.89678C30.2634 5.04567 30.8227 5.49537 30.8227 5.49537C30.8227 5.49537 31.6798 3.82356 32.6328 4.85446C32.4597 5.03131 32.0599 5.43264 32.0599 5.43264L32.7704 6.03727C32.7704 6.03727 33.5057 4.95196 33.9932 5.11823C34.3689 5.23538 34.3084 5.5581 34.1663 6.59127C34.1066 6.5633 33.7227 6.1786 32.8633 6.31389C32.2035 6.41895 30.964 7.00771 30.964 6.49075C30.964 5.96774 31.0343 5.86646 31.0343 5.86646L30.5173 6.03727C30.5173 6.03727 30.4425 7.35839 31.2716 7.43397C32.2194 7.51182 33.1891 6.90794 33.8345 6.94498C34.22 6.97143 34.5072 7.08404 34.5072 7.08404H34.9508C34.9508 7.08404 35.4096 5.00411 34.5427 4.61714C34.8427 4.37075 34.7936 4.08355 34.6999 3.66031C35.1186 3.67694 35.8033 3.68147 36.2719 3.73513L35.9228 7.14299C36.2077 7.00771 36.7171 7.20799 36.7171 7.20799L37.1169 3.80844L37.6036 3.87495L37.6732 3.11161C37.6732 3.11161 37.027 3.04736 37.0171 3.04207Z" fill="#007355"/>
<path id="Vector_30" d="M43.2615 7.57977C43.2615 7.57977 42.6055 6.7212 42.1634 6.55039C42.8677 6.5912 43.7014 6.55039 43.7014 6.55039L43.2615 7.57977ZM40.2066 3.51135C40.2066 3.51135 40.0902 3.95802 40.0116 4.24069C43.0144 4.92619 43.9871 5.36077 44.207 5.43257C44.207 5.43257 44.0853 5.69181 44.0853 5.67972C42.9207 5.54065 39.7781 5.45751 39.7781 5.45751C39.7781 5.45751 39.8733 6.1211 39.9481 6.4015C43.0461 7.11496 43.2812 8.7127 43.2812 8.7127C43.2812 8.7127 43.5238 8.81247 43.6251 8.86386L45.0225 5.75454C45.0225 5.75454 45.7186 6.00471 46.1879 6.22011L44.6688 9.2871C44.6688 9.2871 45.2538 9.53576 45.4503 9.65971L46.9165 6.55039C46.9165 6.55039 47.2075 6.70381 47.4108 6.79451L47.8046 6.15813C46.2015 5.23531 42.2797 3.85977 40.2066 3.51135Z" fill="#007355"/>
<path id="Vector_31" d="M48.0463 8.21466C48.0463 7.3387 50.4142 7.39765 50.4142 8.15571C50.4142 9.05283 48.0463 9.14277 48.0463 8.21466ZM49.1074 6.79453C48.555 6.77639 47.6563 7.17847 47.6223 8.10583C47.6072 9.03847 48.3161 9.44358 49.1717 9.51235C49.9887 9.57811 50.6697 9.02336 50.7052 8.15571C50.7286 7.18376 49.6448 6.81191 49.1074 6.79453Z" fill="#007355"/>
<path id="Vector_32" d="M46.9762 58.9125L48.2573 57.7833L48.9677 58.942L46.9762 58.9125ZM35.3204 62.108C35.4738 62.0362 36.9688 61.5608 36.9688 61.5608L37.0852 63.0157C37.0852 63.0157 35.8487 62.2123 35.3204 62.108ZM29.4267 62.8282C29.0269 62.0951 27.7905 61.4708 27.7905 61.4708L29.6535 61.4346C29.6535 61.4346 29.4759 62.5887 29.4267 62.8282ZM22.7093 59.3569C22.6035 59.0236 21.9739 58.0426 21.6776 57.9481C21.0957 57.7569 20.3807 57.8808 20.0549 57.8491C20.1487 57.3352 19.996 56.5733 19.996 56.5733C21.494 57.4576 23.1522 58.2414 23.1522 58.2414C23.1522 58.2414 22.8075 59.1944 22.7093 59.3569ZM48.5596 56.2068L49.23 55.7556C49.23 55.7556 48.9239 55.3595 48.7017 55.0799C48.0547 55.4691 43.1232 59.6645 33.9932 59.6645C24.8746 59.6645 18.9114 54.9045 18.4912 54.5297C18.4912 54.5652 17.9788 55.2031 17.9788 55.2031C17.9788 55.2031 18.2456 55.392 18.3831 55.5061C18.3045 55.7155 18.3582 55.9868 18.6295 56.1584C19.5864 56.7683 19.6347 57.0646 19.6808 57.4319C19.7292 57.7833 19.4186 58.1227 18.8321 58.1907C18.0997 58.2655 17.9939 57.8287 18.0075 57.2369C18.0279 57.2127 17.7906 57.2037 17.5684 57.2037C17.3779 58.1076 17.8601 58.9125 18.4338 59.1173C18.99 59.31 20.9974 58.8732 21.6973 59.0561C22.4334 59.2314 22.3586 60.2933 22.3586 60.2933L21.7661 61.3605C21.7661 61.3605 22.2195 61.5842 22.6753 61.7346C22.6753 61.7346 23.9805 58.8074 24.0841 58.6313C27.0097 59.8293 29.8205 60.2132 29.8205 60.2132L29.7865 60.4951L25.0152 60.4483C25.0152 60.4483 25.0371 61.1118 25.0152 61.4708C27.9114 61.5706 29.3625 63.5825 29.3625 63.5825C29.3625 63.5825 29.7759 63.6551 30.2634 63.7125C30.2634 63.7125 30.704 60.7279 30.7773 60.3379C34.1912 60.7415 36.8841 60.3666 36.8841 60.3666V60.6826L32.2194 62.0951C32.2194 62.0951 32.5716 62.7398 32.722 62.9121C35.9031 62.3755 37.2144 63.7579 37.2144 63.7579C37.2144 63.7579 37.6392 63.7496 38.0488 63.6846C38.0488 63.6846 37.9438 61.5192 37.9596 61.3439C39.6012 60.91 40.0267 61.2101 40.0554 61.4542C40.0955 61.8601 39.7206 61.913 38.8968 62.0588C38.8968 62.0588 39.1916 62.7564 39.2112 62.8282C40.4462 62.7224 40.5792 61.6333 40.5482 61.4346C40.456 60.91 39.9814 60.4256 37.8765 60.5903C37.8765 60.6024 37.8765 60.2631 37.8765 60.2631C38.9709 60.1157 41.2685 59.5209 41.2685 59.5209L42.2268 62.7844C42.2268 62.7844 42.7816 62.7005 43.1292 62.5252L42.1482 59.2496C44.9779 58.4182 47.7108 56.7502 47.7108 56.7502L47.8144 56.9301C47.4486 57.2596 44.0301 60.0515 44.0301 60.0515C44.0301 60.0515 44.6076 60.545 44.8343 60.6395C46.6852 59.0841 49.7908 59.4499 49.7908 59.4499C49.7908 59.4499 49.9049 59.4499 50.2405 59.1702L48.5596 56.2068Z" fill="#007355"/>
</g>
</svg>
