<svg width="17" height="20" viewBox="0 0 17 20" fill="none" xmlns="http://www.w3.org/2000/svg">
<g id="Icon" clip-path="url(#clip0_46_24786)">
<path id="Vector" d="M10.1461 13.3998V15.637C10.1461 16.1106 10.0083 16.3474 9.73263 16.3474C9.57006 16.3474 9.41102 16.2696 9.25551 16.1141V12.9227C9.41102 12.7672 9.57006 12.6894 9.73263 12.6894C10.0083 12.6894 10.1461 12.9262 10.1461 13.3998ZM13.7298 13.4104V13.8981H12.7756V13.4104C12.7756 12.9298 12.9346 12.6894 13.2527 12.6894C13.5708 12.6894 13.7298 12.9298 13.7298 13.4104ZM3.48765 11.099H4.62214V10.1024H1.3141V11.099H2.42739V17.132H3.48765V11.099ZM6.54122 17.132H7.48486V11.8942H6.54122V15.902C6.32917 16.1989 6.12772 16.3474 5.93687 16.3474C5.80964 16.3474 5.73542 16.2731 5.71422 16.1247C5.70715 16.1035 5.70361 15.9798 5.70361 15.7536V11.8942H4.75997V16.0399C4.75997 16.3862 4.78825 16.6442 4.8448 16.8139C4.92962 17.0754 5.1346 17.2062 5.45975 17.2062C5.79904 17.2062 6.15953 16.9906 6.54122 16.5594V17.132ZM11.0898 15.5628V13.474C11.0898 12.958 11.058 12.6081 10.9943 12.4244C10.8742 12.0285 10.6233 11.8306 10.2416 11.8306C9.88814 11.8306 9.55945 12.0215 9.25551 12.4032V10.1024H8.31187V17.132H9.25551V16.623C9.57359 17.0118 9.90227 17.2062 10.2416 17.2062C10.6233 17.2062 10.8742 17.0118 10.9943 16.623C11.058 16.4322 11.0898 16.0788 11.0898 15.5628ZM14.6735 15.4567V15.3189H13.7086C13.7086 15.6794 13.7016 15.895 13.6874 15.9657C13.638 16.2201 13.4966 16.3474 13.2633 16.3474C12.9382 16.3474 12.7756 16.1035 12.7756 15.6158V14.6933H14.6735V13.6013C14.6735 13.0429 14.5781 12.6329 14.3872 12.3714C14.1115 12.0109 13.7369 11.8306 13.2633 11.8306C12.7827 11.8306 12.4045 12.0109 12.1288 12.3714C11.9309 12.6329 11.832 13.0429 11.832 13.6013V15.4355C11.832 15.9939 11.9345 16.4039 12.1394 16.6654C12.4151 17.0259 12.7968 17.2062 13.2845 17.2062C13.7935 17.2062 14.1752 17.0189 14.4296 16.6442C14.5568 16.4534 14.6311 16.2625 14.6523 16.0717C14.6664 16.0081 14.6735 15.8031 14.6735 15.4567ZM8.22705 5.77649V3.54993C8.22705 3.0622 8.07508 2.81834 7.77114 2.81834C7.46719 2.81834 7.31522 3.0622 7.31522 3.54993V5.77649C7.31522 6.27128 7.46719 6.51868 7.77114 6.51868C8.07508 6.51868 8.22705 6.27128 8.22705 5.77649ZM15.8504 13.7391C15.8504 15.3931 15.7585 16.6301 15.5747 17.45C15.4757 17.8671 15.2708 18.217 14.9598 18.4997C14.6487 18.7824 14.2882 18.945 13.8783 18.9874C12.5777 19.1359 10.6162 19.2101 7.99379 19.2101C5.3714 19.2101 3.4099 19.1359 2.10931 18.9874C1.69933 18.945 1.33708 18.7824 1.02253 18.4997C0.707985 18.217 0.504767 17.8671 0.412877 17.45C0.229097 16.6584 0.137207 15.4214 0.137207 13.7391C0.137207 12.0851 0.229097 10.8481 0.412877 10.0282C0.511835 9.61112 0.71682 9.26124 1.02783 8.9785C1.33884 8.69576 1.70287 8.52965 2.11991 8.48017C3.41343 8.3388 5.3714 8.26812 7.99379 8.26812C10.6162 8.26812 12.5777 8.3388 13.8783 8.48017C14.2882 8.52965 14.6505 8.69576 14.9651 8.9785C15.2796 9.26124 15.4828 9.61112 15.5747 10.0282C15.7585 10.8198 15.8504 12.0568 15.8504 13.7391ZM5.2689 0.210083H6.35038L5.06745 4.44055V7.31388H4.00718V4.44055C3.90823 3.91749 3.69264 3.16823 3.36042 2.19279C3.09889 1.46473 2.86916 0.803833 2.67125 0.210083H3.79513L4.54792 2.99859L5.2689 0.210083ZM9.19189 3.74078V5.59624C9.19189 6.16879 9.09294 6.58583 8.89502 6.84736C8.62642 7.20785 8.25179 7.3881 7.77114 7.3881C7.29755 7.3881 6.92646 7.20785 6.65785 6.84736C6.45994 6.57876 6.36098 6.16172 6.36098 5.59624V3.74078C6.36098 3.1753 6.45994 2.7618 6.65785 2.50026C6.92646 2.13977 7.29755 1.95953 7.77114 1.95953C8.25179 1.95953 8.62642 2.13977 8.89502 2.50026C9.09294 2.7618 9.19189 3.1753 9.19189 3.74078ZM12.7438 2.02314V7.31388H11.7789V6.73073C11.4043 7.16897 11.0403 7.3881 10.6869 7.3881C10.3617 7.3881 10.1532 7.25733 10.0613 6.9958C10.0048 6.82615 9.97649 6.56109 9.97649 6.2006V2.02314H10.9413V5.91432C10.9413 6.14758 10.9449 6.27128 10.9519 6.28542C10.9731 6.44092 11.0474 6.51868 11.1746 6.51868C11.3654 6.51868 11.5669 6.36671 11.7789 6.06276V2.02314H12.7438Z" fill="white"/>
</g>
<defs>
<clipPath id="clip0_46_24786">
<rect width="16.3" height="19" fill="white" transform="matrix(1 0 0 -1 0.130127 19.2101)"/>
</clipPath>
</defs>
</svg>
