<svg width="22" height="22" viewBox="0 0 22 22" fill="none" xmlns="http://www.w3.org/2000/svg">
<g id="Group 1">
<path id="Vector" d="M10.9978 21.9998C17.0729 21.9998 22 17.0761 22 10.9976C22 4.92342 17.0729 0.000244141 10.9978 0.000244141C4.92342 0.000244141 0 4.92342 0 10.9976C0 17.0761 4.92342 21.9998 10.9978 21.9998Z" fill="white"/>
<path id="Vector_2" d="M10.9979 18.47C15.1225 18.47 18.4697 15.1286 18.4697 10.9974C18.4697 6.87361 15.1225 3.5271 10.9979 3.5271C6.8719 3.5271 3.52734 6.87361 3.52734 10.9974C3.52734 15.1286 6.8719 18.47 10.9979 18.47Z" fill="#6F7E8B"/>
<path id="Vector_3" fill-rule="evenodd" clip-rule="evenodd" d="M10.542 14.4797C10.53 14.4905 10.5239 14.5012 10.5207 14.5127V14.5147C10.5175 14.525 10.5131 14.532 10.508 14.5433H10.5053L10.508 14.5494C10.5016 14.5553 10.5002 14.5648 10.4928 14.5648C10.4928 14.5648 10.4904 14.5648 10.4853 14.5648C10.4762 14.5648 10.4669 14.5648 10.4584 14.5648C10.4366 14.5739 10.4239 14.6125 10.4239 14.6186L10.4197 14.6233L10.4239 14.6306C10.4239 14.6365 10.4366 14.6533 10.4317 14.6714C10.4276 14.6714 10.4276 14.6748 10.4158 14.6805C10.3664 14.703 10.3664 14.7563 10.3664 14.7592C10.3664 14.7651 10.3623 14.7783 10.3566 14.7895H10.3505V14.7905C10.3376 14.7981 10.3212 14.7905 10.3006 14.7783C10.2469 14.7401 10.2723 14.6064 10.2911 14.5494C10.3322 14.5272 10.3691 14.4885 10.3914 14.4523C10.4239 14.377 10.4637 14.2958 10.5449 14.2851C10.5501 14.2851 10.5623 14.2851 10.5669 14.288C10.5735 14.2907 10.5765 14.3027 10.5765 14.3134C10.5765 14.323 10.5765 14.3315 10.5848 14.344C10.5865 14.4051 10.5623 14.4523 10.542 14.4797ZM15.1871 15.7952H15.184C15.1473 15.7708 15.1473 15.7498 15.1422 15.7141C15.1422 15.6906 15.1422 15.6588 15.1179 15.6224C15.0876 15.5703 15.0896 15.4925 15.0908 15.4204C15.0908 15.3756 15.0928 15.3299 15.0876 15.2913C15.0737 15.2062 15.0661 14.936 15.0661 14.8954C15.0737 14.879 15.0896 14.8343 15.0928 14.7064C15.0976 14.5365 15.0737 14.4739 15.0368 14.387L15.0307 14.3665C14.9886 14.2675 15.0084 14.2384 15.0461 14.2046C15.104 14.1491 15.0561 13.9819 15.0223 13.8899C14.9876 13.8019 14.9693 13.6897 14.9876 13.5493C14.9969 13.4403 14.9568 13.3163 14.9346 13.2708C14.9267 13.2657 14.9267 13.2598 14.9223 13.2549C14.8996 13.2185 14.8959 13.2082 14.9077 13.1258C14.9267 13.0319 14.8673 12.9627 14.8644 12.9571L14.8624 12.9554H14.8592C14.8592 12.9554 14.8054 12.928 14.8054 12.8732C14.8054 12.8446 14.7991 12.7297 14.7367 12.651L14.7206 12.6338C14.6778 12.5847 14.6472 12.5502 14.6553 12.4681C14.6602 12.3676 14.6221 12.2436 14.6221 12.2436C14.6172 12.2406 14.579 12.0883 14.5903 12.0103C14.6553 11.9088 14.6409 11.8619 14.6221 11.791C14.6172 11.7665 14.6074 11.7342 14.5996 11.6959C14.5817 11.5707 14.5198 11.4477 14.4976 11.4137C14.5123 11.3973 14.5328 11.3508 14.48 11.2865C14.4284 11.2313 14.424 11.1738 14.424 11.1623C14.4318 11.1525 14.4516 11.0975 14.4399 11.0139C14.4367 10.9821 14.4318 10.9559 14.4096 10.9464C14.3873 10.9427 14.3682 10.964 14.3409 11.0117C14.325 11.0344 14.3093 11.0621 14.3022 11.0621C14.3022 11.0621 14.2834 11.0506 14.2563 10.9975C14.2311 10.962 14.2103 10.9427 14.1841 10.9432C14.1506 10.9452 14.1225 10.9904 14.098 11.0427L14.089 11.0515C14.0812 11.077 14.0694 11.0929 14.0604 11.1075C14.0406 11.1322 14.0247 11.1376 13.987 11.1281C13.9535 11.1178 13.9516 11.1063 13.9433 11.0875C13.9401 11.0621 13.9291 11.0388 13.8963 11.0066C13.8736 10.988 13.8543 10.988 13.8401 10.9904C13.7841 11.0066 13.7599 11.1029 13.7523 11.1156V11.1229L13.7807 11.2824C13.7731 11.2968 13.7523 11.3599 13.8007 11.4137C13.81 11.4274 13.8112 11.4352 13.81 11.4477C13.81 11.4782 13.7731 11.5139 13.7523 11.5276H13.6787V11.535L13.6672 11.5968C13.6489 11.612 13.5848 11.6731 13.4965 11.7619C13.3855 11.8663 13.4586 12.022 13.5158 12.137L13.5229 12.1531C13.565 12.2526 13.5332 12.3047 13.5229 12.3179C13.51 12.3275 13.4332 12.3783 13.3836 12.4434C13.3371 12.5038 13.231 12.5421 13.1574 12.5204C13.1522 12.5204 13.1459 12.517 13.1393 12.5111V12.5096C13.0808 12.4781 13.0425 12.3583 13.031 12.3179C13.0244 12.2697 12.9627 12.0639 12.8899 11.9509C12.8693 11.9088 12.8456 11.892 12.8219 11.8949C12.7886 11.8949 12.7723 11.9333 12.7554 11.97L12.7468 11.9832C12.7197 12.0465 12.7671 12.2133 12.7886 12.2644C12.7994 12.2834 12.7994 12.2954 12.7948 12.3037C12.7886 12.3067 12.771 12.3147 12.7434 12.3047C12.7197 12.2991 12.7197 12.2785 12.715 12.2436C12.7121 12.2182 12.7102 12.191 12.6943 12.17C12.6718 12.137 12.6544 12.002 12.6466 11.9181C12.6466 11.8949 12.6383 11.8746 12.6383 11.8592C12.6302 11.8115 12.6082 11.733 12.5825 11.6663C12.5678 11.6274 12.5585 11.591 12.5539 11.5655C12.5348 11.5032 12.4532 11.334 12.4128 11.2865L12.4099 11.2824C12.3896 11.256 12.359 11.2176 12.3649 11.1914C12.3649 11.1855 12.372 11.1799 12.3832 11.1718C12.405 11.1582 12.4258 11.1476 12.4258 11.1322C12.4307 11.1075 12.4214 11.0929 12.3896 11.0464L12.3847 11.0445C12.3649 11.0117 12.3639 11.0039 12.3639 11.0009C12.3688 10.9975 12.3896 10.9968 12.4087 10.9968L12.4258 10.9958C12.4468 10.9958 12.4644 10.9904 12.471 10.9792C12.4832 10.9701 12.4823 10.9559 12.4823 10.9432C12.4786 10.9305 12.4786 10.9234 12.4832 10.9212C12.5216 10.8872 12.5348 10.8349 12.5309 10.7285C12.5309 10.6654 12.5348 10.6503 12.5439 10.6332C12.5539 10.6217 12.56 10.609 12.56 10.587C12.5678 10.5363 12.5984 10.5112 12.629 10.486L12.6348 10.4789C12.7023 10.517 12.771 10.4818 12.771 10.4818L12.8077 10.4662L12.771 10.4542C12.771 10.4542 12.7647 10.4542 12.7613 10.4503C12.7613 10.4466 12.7671 10.4356 12.7886 10.4138C12.8429 10.3701 12.8187 10.3261 12.7994 10.2923C12.7962 10.2872 12.7948 10.2769 12.7886 10.2725C12.7855 10.2573 12.7855 10.2417 12.7855 10.2417C12.7886 10.2368 12.8028 10.2368 12.8219 10.2507C12.8571 10.2713 12.8796 10.2671 12.8899 10.2586C12.9028 10.252 12.9097 10.2507 12.9207 10.2671C12.9627 10.2955 13.0055 10.2999 13.0887 10.2999H13.1459C13.1872 10.3062 13.2188 10.2955 13.24 10.2713C13.2716 10.2295 13.2606 10.1691 13.2554 10.1637C13.2574 10.105 13.2657 10.0427 13.2703 10.0079C13.3019 10.1197 13.3371 10.1334 13.4364 10.1637C13.4618 10.1681 13.4887 10.1742 13.4997 10.16C13.5119 10.1412 13.5063 10.1197 13.4887 10.0842C13.4809 10.0617 13.4699 10.0407 13.463 10.0165C13.4542 9.99228 13.4586 9.98054 13.4586 9.98054C13.4672 9.97957 13.4919 9.9847 13.51 9.99228C13.5271 10.0008 13.5525 10.0111 13.5797 10.0165C13.641 10.0331 13.6489 10.0642 13.6616 10.1006C13.6672 10.1197 13.6694 10.1334 13.6787 10.149V10.1522C13.6951 10.1681 13.7188 10.1884 13.743 10.1815C13.7807 10.1742 13.7953 10.1126 13.8208 10.0079L13.8288 9.98054C13.8543 9.87662 13.8411 9.84263 13.8374 9.80865C13.8374 9.80571 13.8335 9.80253 13.8335 9.79789C13.8658 9.83554 13.8963 9.85633 13.9215 9.85633C13.9401 9.85633 13.9548 9.8463 13.9672 9.82478C14.001 9.77564 13.9616 9.73994 13.9266 9.70668L13.9134 9.69666C13.9134 9.6859 13.9134 9.66805 13.9151 9.66585C13.9215 9.66585 13.9425 9.66585 13.9672 9.67196C13.987 9.67636 14.0188 9.68076 14.0506 9.69128C14.1051 9.69666 14.1428 9.69128 14.1704 9.66585C14.221 9.61939 14.2281 9.53307 14.221 9.45409C14.2198 9.41203 14.2281 9.39541 14.2357 9.39027C14.244 9.38294 14.2712 9.39027 14.2902 9.39981C14.2966 9.39981 14.3022 9.39981 14.3022 9.39981C14.3409 9.41326 14.346 9.41326 14.381 9.39027C14.4147 9.36802 14.4017 9.33036 14.3986 9.30249C14.3942 9.29075 14.3905 9.28268 14.3905 9.27119C14.3905 9.25603 14.3986 9.2394 14.3986 9.21984C14.4061 9.19539 14.4179 9.15969 14.4179 9.11665C14.4179 9.0746 14.4284 9.05332 14.4465 9.0208C14.4575 9.00002 14.4651 8.97605 14.4761 8.93962C14.4976 8.86137 14.4812 8.83399 14.4575 8.80954H14.4543C14.4399 8.79413 14.4159 8.76039 14.3905 8.69926C14.381 8.67701 14.381 8.66429 14.3905 8.64669C14.3986 8.6347 14.4179 8.62688 14.4399 8.62688C14.4685 8.62688 14.4761 8.64057 14.4863 8.66111C14.4939 8.666 14.5052 8.68801 14.537 8.67701C14.5548 8.67309 14.5592 8.67701 14.5739 8.69192C14.5802 8.69657 14.5868 8.70464 14.5981 8.71368C14.6328 8.73887 14.7812 8.70879 14.826 8.67701C14.8568 8.66111 14.858 8.6347 14.858 8.61905C14.858 8.60585 14.847 8.58702 14.8294 8.58115C14.8165 8.57504 14.8054 8.56697 14.8118 8.52394C14.8118 8.49997 14.8118 8.47894 14.7991 8.46012C14.7861 8.44887 14.7693 8.43884 14.7367 8.43884C14.7367 8.43884 14.7113 8.43884 14.7084 8.43738C14.7045 8.43542 14.7045 8.42882 14.7045 8.42368C14.7045 8.41708 14.7045 8.40339 14.7045 8.39214C14.6981 8.35277 14.6651 8.33297 14.6328 8.31707C14.6172 8.30558 14.5981 8.29286 14.5868 8.28015C14.5739 8.25399 14.5592 8.23834 14.5421 8.23834C14.5216 8.23834 14.5052 8.24934 14.4912 8.26157C14.48 8.2667 14.424 8.24029 14.3797 8.20361C14.3682 8.19383 14.3367 8.14982 14.2741 8.15593C14.2198 8.15789 14.1912 8.12928 14.1912 8.12928V8.12855L14.1893 8.12463C14.1893 8.12463 14.1428 8.09285 14.1059 8.05788C14.0604 8.00995 13.987 8.01949 13.987 8.02438C13.987 8.02438 13.8819 8.03294 13.7474 8.0278C13.6102 8.01949 13.4427 8.06473 13.3332 8.09725H13.3278V8.10238C13.3053 8.12414 13.286 8.1349 13.2703 8.12463C13.2479 8.11705 13.2346 8.08307 13.2346 8.07255C13.2346 8.04981 13.2239 8.00555 13.1892 7.99675C13.165 7.98575 13.1366 8.00164 13.1077 8.04614C13.0449 8.12928 12.9796 8.09285 12.9373 8.06937C12.9302 8.06473 12.9207 8.06253 12.9192 8.05788C12.9016 8.04981 12.8591 8.04419 12.8077 8.03294C12.7554 8.01949 12.6796 8.00164 12.6637 7.99137C12.6595 7.99137 12.6571 7.99137 12.6544 7.98575C12.6246 7.9635 12.5678 7.92413 12.5028 7.95567C12.4307 7.98575 12.3514 7.98379 12.3064 7.9635C12.249 7.94564 12.07 7.97083 11.9666 8.03294C11.8675 8.09285 11.7191 8.04981 11.6189 8.02438L11.612 8.01949L11.6088 8.02438C11.5345 8.06253 11.4954 8.04419 11.4653 8.0278C11.4611 8.02438 11.4509 8.01949 11.4479 8.0168C11.4081 8.00164 11.2325 8.0278 11.1755 8.06473C11.1672 8.07255 11.1482 8.07891 11.1337 8.07891H11.1271C11.0777 8.08453 11.022 8.07255 11.0044 8.05788C10.9853 8.03832 10.9569 8.04981 10.942 8.05788C10.9102 8.06937 10.8924 8.07255 10.8755 8.04981C10.8445 8.00555 10.8146 8.01387 10.7924 8.01949C10.7669 8.0278 10.7555 8.02903 10.7474 8.00995C10.7046 7.95054 10.4762 7.92413 10.4317 7.92731C10.3806 7.93489 10.3305 7.90995 10.2928 7.87107C10.2493 7.82436 10.1104 7.77888 9.97666 7.796C9.95123 7.78768 9.93044 7.76935 9.92066 7.74074C9.88398 7.66102 9.91259 7.5373 9.92359 7.51456C9.92726 7.50282 9.93044 7.48081 9.93044 7.44853C9.93362 7.40036 9.93655 7.32016 9.97519 7.22211C10.0133 7.11697 9.99279 7.08126 9.95734 7.04728C9.94462 7.0375 9.93362 7.02454 9.92726 7.01255C9.92359 7.00302 9.92066 6.99593 9.91577 6.98517C9.89719 6.948 9.88398 6.92844 10.0197 6.77757C10.085 6.71375 10.1094 6.65238 10.0982 6.59907C10.0884 6.5712 10.0659 6.53012 9.99768 6.4998C9.9879 6.4998 9.98106 6.49662 9.98106 6.49662C9.96003 6.49026 9.95123 6.49026 9.9544 6.45138C9.96003 6.37264 9.91015 6.35993 9.86956 6.34942C9.84902 6.34942 9.8363 6.33474 9.82823 6.31836C9.81234 6.29855 9.8072 6.27239 9.81576 6.24696C9.82823 6.20808 9.81234 6.18461 9.79938 6.17116C9.79106 6.15673 9.78691 6.15258 9.78691 6.13155C9.78691 6.07677 9.75023 6.04205 9.68127 6.03301C9.66342 6.03301 9.6512 6.03472 9.64264 6.03985C9.64264 6.02396 9.64264 5.99779 9.64264 5.98459C9.64264 5.95647 9.63677 5.91588 9.61428 5.91099C9.59374 5.90414 9.56659 5.92664 9.55681 5.94204C9.53627 5.93984 9.50913 5.94204 9.49617 5.96063C9.49006 5.96625 9.48492 5.97946 9.49153 5.99779C9.504 6.02176 9.49006 6.03301 9.45656 6.05697L9.45509 6.0621C9.42159 6.07995 9.41964 6.1203 9.42159 6.15258C9.43113 6.1851 9.448 6.21517 9.47563 6.22495C9.4996 6.23033 9.504 6.24843 9.504 6.25087C9.504 6.25087 9.49813 6.25699 9.4881 6.25699C9.43553 6.24843 9.42795 6.29097 9.42159 6.33401C9.42159 6.3477 9.41964 6.35626 9.41964 6.36898C9.4101 6.41055 9.40057 6.42595 9.40057 6.42595C9.40057 6.42595 9.38761 6.42595 9.37978 6.41055C9.36071 6.37851 9.34041 6.35993 9.314 6.35626C9.29664 6.35186 9.27928 6.35626 9.25825 6.36898C9.25825 6.37558 9.24603 6.37558 9.23551 6.37558C9.21717 6.36898 9.20275 6.35553 9.19101 6.34257C9.1805 6.32056 9.16094 6.30565 9.1426 6.30565C9.12475 6.30198 9.10714 6.30565 9.08929 6.31836C9.06704 6.33988 9.04454 6.34257 9.00029 6.33474C8.97485 6.33059 8.94698 6.30565 8.91813 6.2785C8.90394 6.26481 8.88854 6.25087 8.87069 6.23963C8.85969 6.22593 8.85162 6.21126 8.83841 6.19977C8.81787 6.17434 8.7922 6.14622 8.7384 6.14255C8.71322 6.13448 8.71102 6.13448 8.71102 6.13448C8.71102 6.13448 8.71102 6.13155 8.71102 6.12837C8.71102 6.11614 8.70662 6.10416 8.68388 6.10416C8.66211 6.09756 8.65404 6.06724 8.65404 6.05697C8.65698 6.04205 8.6763 5.95647 8.62152 5.91588C8.5846 5.89192 8.59267 5.81832 8.59511 5.80291C8.60465 5.79362 8.6159 5.77528 8.61223 5.74618C8.60563 5.72467 8.59267 5.71122 8.56773 5.70095C8.52787 5.67967 8.52787 5.6628 8.52592 5.643C8.52592 5.63542 8.52592 5.62661 8.51956 5.61879C8.51393 5.59434 8.48899 5.5469 8.41295 5.5469C8.37431 5.5469 8.36624 5.53932 8.35377 5.51829C8.34252 5.509 8.3347 5.49335 8.31856 5.47868C8.29949 5.46083 8.27919 5.45838 8.26599 5.45838C8.23738 5.46865 8.22295 5.49824 8.20999 5.52709C8.20682 5.53223 8.20364 5.53932 8.20364 5.54127C8.17821 5.58773 8.21635 5.67429 8.22295 5.68579V5.68872H8.22956L8.2924 5.71831C8.2924 5.7298 8.29949 5.74985 8.30903 5.76623C8.32199 5.77675 8.3391 5.78849 8.36062 5.78849C8.41123 5.79362 8.42591 5.81416 8.42884 5.87113C8.43373 5.89461 8.42591 5.89461 8.42591 5.89461C8.42591 5.89461 8.41759 5.89461 8.41417 5.89754L8.41295 5.89461C8.41295 5.89461 8.41123 5.89461 8.41123 5.89754C8.39021 5.89754 8.35842 5.88703 8.32688 5.8616C8.28482 5.82981 8.24545 5.81832 8.21122 5.80609C8.19899 5.799 8.18285 5.79362 8.17063 5.78849C8.15767 5.78164 8.14838 5.77675 8.13982 5.78849C8.11952 5.79362 8.11316 5.81612 8.10338 5.83641C8.1002 5.8501 8.09214 5.86233 8.08309 5.87113C8.07795 5.88311 8.06988 5.88703 8.05668 5.88311C8.04763 5.8814 8.03492 5.86233 8.03492 5.83079C8.03492 5.78849 8.02196 5.77528 8.00435 5.76159C7.99506 5.75719 7.98846 5.74985 7.98528 5.7364C7.97428 5.71122 7.95056 5.71122 7.93369 5.70902C7.92929 5.70902 7.92293 5.70902 7.92293 5.70902H7.92146C7.91364 5.67429 7.88136 5.64202 7.84321 5.64813C7.82414 5.6518 7.81558 5.63835 7.80018 5.61879H7.79675C7.8036 5.53638 7.74736 5.52025 7.73294 5.51829L7.68819 5.48675C7.68525 5.46865 7.67376 5.42904 7.64662 5.42146L7.64393 5.41779H7.63586C7.56739 5.42146 7.53561 5.38454 7.53561 5.38454V5.3794C7.53194 5.37745 7.41897 5.28697 7.35173 5.24761C7.2972 5.21533 7.30087 5.19137 7.30331 5.14662C7.30331 5.14271 7.30331 5.13488 7.30331 5.13488V5.1229L7.2972 5.12046C7.25881 5.07864 7.23509 5.06984 7.21773 5.07351C7.19475 5.08182 7.1923 5.10994 7.18863 5.14051C7.18448 5.15762 7.18276 5.18428 7.17298 5.19137C7.13264 5.20824 7.10721 5.27964 7.09792 5.40385C7.09474 5.44836 7.1187 5.47501 7.13997 5.47868C7.15513 5.48308 7.18448 5.4711 7.19988 5.42659C7.20819 5.41779 7.21284 5.40972 7.21284 5.40972C7.22115 5.40385 7.23509 5.41119 7.24561 5.41779C7.26394 5.42146 7.28131 5.42904 7.2972 5.42146C7.31138 5.42146 7.32923 5.42146 7.34024 5.4354C7.35173 5.44836 7.34513 5.45838 7.34513 5.45838C7.33901 5.46865 7.32336 5.48675 7.33119 5.49824C7.33901 5.509 7.34708 5.509 7.35344 5.509C7.36811 5.52709 7.38865 5.576 7.40919 5.62221C7.39965 5.62661 7.38474 5.62661 7.37887 5.62906C7.3708 5.62906 7.3708 5.62906 7.36811 5.62906C7.16834 5.67038 7.09474 5.8814 7.07884 5.91979C6.88469 5.97823 6.8397 6.06577 6.81183 6.11321C6.8062 6.1203 6.80327 6.12837 6.80082 6.13155C6.78199 6.15429 6.78199 6.20466 6.78199 6.25699C6.78199 6.28242 6.78199 6.30882 6.77441 6.32814C6.77246 6.34257 6.7705 6.34257 6.76292 6.34942C6.74996 6.35553 6.73309 6.36213 6.71157 6.39221C6.66854 6.45138 6.66854 6.51324 6.67489 6.68074C6.67489 6.74407 6.68932 6.78491 6.72282 6.80618C6.76757 6.83699 6.83579 6.81327 6.90792 6.78857C6.94142 6.77561 6.95267 6.77561 6.95267 6.77561C6.95781 6.77757 6.95878 6.77757 6.95878 6.78271C6.95878 6.7942 6.95878 6.81327 6.98568 6.82427C7.02187 6.90301 7.10721 7.0018 7.27495 7.0441C7.36249 7.30353 7.44122 7.33483 7.54954 7.3852C7.56739 7.39327 7.58427 7.39792 7.59723 7.40843C7.61801 7.41797 7.63268 7.42531 7.64662 7.43362C7.72829 7.47641 7.73587 7.47641 7.83686 7.41235L7.85617 7.40036C7.89896 7.37347 7.93369 7.36931 7.95618 7.38814C7.98528 7.41235 7.98846 7.46541 7.98528 7.48815C7.97697 7.53045 7.96939 7.65833 8.05815 7.69354C8.10901 7.71262 8.11952 7.72655 8.14324 7.76225C8.14838 7.77277 8.16231 7.79355 8.17821 7.80871C8.14324 7.88011 8.17381 7.97425 8.18677 8.01264C8.18677 8.01387 8.18677 8.0168 8.18677 8.0168C8.16231 8.0278 8.1293 8.03294 8.1161 8.0168C8.10338 7.99822 8.09067 7.9877 8.07257 7.98575C8.04886 7.98208 8.02514 7.99675 7.98846 8.02438C7.94542 8.06937 7.87989 8.03294 7.84321 8.00164C7.79675 7.95054 7.68819 7.95567 7.6229 8.00555C7.56739 8.05495 7.53194 8.03294 7.46641 7.99137V7.9877C7.40552 7.95054 7.29255 7.9635 7.26835 7.99675C7.25881 8.00555 7.25881 8.02438 7.27813 8.03514C7.31652 8.06473 7.28644 8.1349 7.28644 8.1349L7.28131 8.14004V8.14517C7.28131 8.14517 7.28131 8.30558 7.26835 8.39214C7.24561 8.40852 7.24194 8.42784 7.24194 8.43884C7.24194 8.44324 7.24194 8.44642 7.24194 8.44642C7.21773 8.44887 7.13166 8.48261 7.08838 8.5298C7.06882 8.54888 7.05953 8.57504 7.06295 8.60365C7.06882 8.63911 7.06295 8.64669 7.06295 8.64669C7.05659 8.65011 7.02945 8.6347 7.01331 8.62419C6.99864 8.61392 6.98128 8.60365 6.96416 8.59509C6.92528 8.57651 6.8935 8.56012 6.87173 8.5435C6.86489 8.53592 6.85877 8.5298 6.84924 8.52663C6.81696 8.50804 6.75608 8.52663 6.73309 8.54643L6.72796 8.55597L6.73113 8.56477C6.76757 8.66429 6.69861 8.75916 6.69861 8.75916V8.76039C6.69861 8.76039 6.60472 8.93938 6.54383 8.9807C6.47854 9.03107 6.4629 9.0746 6.48637 9.15407L6.4915 9.15969H6.49908C6.53601 9.16654 6.53601 9.17558 6.56486 9.21397C6.57782 9.23036 6.59371 9.25603 6.61474 9.28268C6.73113 9.48148 7.08178 9.67196 7.18276 9.69666C7.39158 9.8463 7.52094 9.8463 7.62632 9.8463C7.65982 9.8463 7.68819 9.8463 7.719 9.8463C7.74736 9.85242 7.76839 9.86366 7.78575 9.88665L7.77988 9.89203L7.78575 9.90083C7.78575 9.90083 7.78893 9.90083 7.79358 9.90083C7.8305 9.97052 7.81558 10.0964 7.79358 10.1544C7.76961 10.1637 7.75201 10.1757 7.74565 10.1916C7.71729 10.2507 7.76839 10.3515 7.8036 10.4165C7.81143 10.4334 7.81729 10.4503 7.82072 10.461C7.84321 10.5092 7.75201 10.6217 7.68525 10.6654C7.61312 10.6654 7.5718 10.6831 7.54954 10.7051C7.53194 10.7285 7.53561 10.7464 7.53561 10.7464V10.754C7.54783 10.7606 7.5559 10.7928 7.54783 10.818C7.53976 10.8259 7.53194 10.8327 7.52094 10.8376C7.48572 10.8471 7.46641 10.8586 7.46641 10.8757C7.45712 10.8968 7.46641 10.9144 7.48255 10.9427L7.48866 10.9559C7.50651 10.9792 7.49746 11.0019 7.47766 11.0322C7.47448 11.0493 7.46641 11.0682 7.46641 11.0875C7.47766 11.2508 7.53561 11.2706 7.59282 11.2865C7.60505 11.2865 7.61312 11.2968 7.62632 11.297C7.6229 11.3112 7.6229 11.3212 7.62632 11.3303C7.64393 11.3826 7.719 11.4352 7.81558 11.4719C7.86106 11.488 7.88258 11.4951 7.88478 11.5056C7.88772 11.5073 7.88478 11.5139 7.88136 11.5235C7.88136 11.5325 7.87696 11.5381 7.87305 11.5477C7.81558 11.5714 7.81729 11.6274 7.82072 11.6731C7.82072 11.6778 7.82072 11.6841 7.82072 11.6917C7.75837 11.7342 7.75201 11.7707 7.75837 11.823C7.73807 11.8453 7.72829 11.8636 7.73587 11.8812C7.74125 11.9057 7.76839 11.9142 7.77988 11.9181C7.78575 11.9374 7.82243 12.002 7.92293 12.022H7.93246L7.93735 12.0162C7.95618 11.9969 7.97428 11.9917 7.9821 11.9917C7.99286 11.9917 7.99946 11.9929 8.00729 12.002C8.01364 12.0103 8.02514 12.022 8.03492 12.022C8.03492 12.022 8.0425 12.0162 8.05057 12.0103C8.06671 11.9929 8.06671 11.9929 8.14324 12.0084L8.19899 12.0132C8.2408 12.022 8.26599 12.0375 8.26281 12.056C8.26281 12.0758 8.2342 12.0996 8.20999 12.0996C8.13004 12.0996 8.05179 12.2358 8.03492 12.2918C8.00729 12.3477 8.00729 12.5502 8.07918 12.591C8.10338 12.6052 8.10338 12.6204 8.10632 12.6488C8.11316 12.6781 8.1161 12.7121 8.15278 12.7524C8.20999 12.8199 8.20682 12.8943 8.17063 12.928C8.13982 12.9542 8.12564 12.9791 8.12221 13.0077C8.12221 13.0319 8.13982 13.0591 8.16231 13.084C8.20999 13.1258 8.19899 13.1466 8.16231 13.186C8.11952 13.2339 8.16231 13.3224 8.21122 13.4165C8.25303 13.4955 8.26134 13.586 8.22956 13.6677C8.21122 13.7205 8.21953 13.7378 8.22956 13.7709C8.23738 13.7894 8.24374 13.8166 8.24374 13.8613C8.2501 13.9462 8.28482 13.9968 8.32688 14.0528C8.3391 14.0738 8.35842 14.0966 8.37089 14.1169C8.38434 14.1406 8.39339 14.1533 8.39828 14.1628C8.41123 14.1726 8.41295 14.1819 8.41417 14.1853C8.41417 14.1853 8.41123 14.1931 8.39828 14.1968C8.39828 14.2046 8.39021 14.2088 8.38116 14.2193C8.3391 14.2623 8.35573 14.288 8.36624 14.323C8.36624 14.3377 8.37749 14.3533 8.37749 14.3765C8.38116 14.3963 8.38434 14.4127 8.39021 14.4357C8.41123 14.5012 8.42884 14.5812 8.39534 14.6409C8.36624 14.6365 8.35573 14.6409 8.35035 14.6504C8.3391 14.6575 8.3391 14.6626 8.34252 14.6714H8.32957L8.3347 14.6905C8.36478 14.7981 8.3347 14.9213 8.3347 14.9213L8.32957 14.9301L8.33812 14.9343C8.33812 14.9343 8.40659 15.0243 8.44449 15.0778C8.44962 15.0908 8.45745 15.0988 8.4665 15.1072C8.47383 15.1287 8.48899 15.1478 8.51393 15.1478C8.52787 15.1504 8.54768 15.1326 8.57531 15.1032C8.59267 15.0778 8.60465 15.0497 8.59952 15.0243C8.59267 14.9781 8.54768 14.9421 8.51638 14.915C8.47383 14.8802 8.48655 14.723 8.48899 14.6714C8.48899 14.6438 8.49731 14.6365 8.50073 14.6306C8.50538 14.6306 8.51638 14.6306 8.52787 14.6306H8.52958C8.51638 14.7771 8.51956 14.8573 8.54768 14.8881C8.56479 14.9101 8.58851 14.9101 8.60563 14.9101C8.61223 14.9101 8.6159 14.9137 8.6159 14.9137L8.62812 14.915L8.63473 14.9101C8.70001 14.8172 8.67483 14.723 8.66285 14.6949C8.66285 14.6905 8.66285 14.6905 8.66285 14.6881C8.66285 14.6805 8.68681 14.6575 8.70001 14.6533C8.69904 14.6959 8.66627 14.9101 8.69904 14.948C8.71322 14.9781 8.72569 15.0744 8.71102 15.1032C8.68119 15.1556 8.68681 15.1957 8.72887 15.2368C8.74329 15.2529 8.75479 15.2612 8.76432 15.2612C8.78022 15.2612 8.7878 15.2492 8.80222 15.2368C8.81176 15.2287 8.82545 15.2128 8.84697 15.1925C8.88194 15.1688 8.89343 15.1556 8.89001 15.1326C8.88854 15.1218 8.87069 15.1135 8.85969 15.1072C8.85162 15.1032 8.84379 15.1013 8.83401 15.0988C8.82545 15.0908 8.83083 15.0786 8.85162 15.0402C8.85969 15.0186 8.87069 14.9859 8.88365 14.948L8.88707 14.9421L8.88194 14.9382C8.85969 14.9032 8.85626 14.8719 8.85162 14.8294C8.85162 14.8086 8.85162 14.7895 8.84379 14.7651C8.83841 14.7416 8.83841 14.7282 8.84379 14.7206C8.84697 14.6949 8.83841 14.6861 8.80222 14.6626C8.7477 14.6306 8.75234 14.5939 8.75234 14.5893C8.75479 14.5812 8.76701 14.5147 8.75601 14.4739C8.75234 14.4609 8.75601 14.4465 8.75919 14.4259C8.76701 14.4051 8.77484 14.387 8.7785 14.3533C8.7785 14.323 8.78315 14.3134 8.78315 14.3134L8.81518 14.3296L8.8076 14.298C8.8076 14.2907 8.80222 14.2741 8.81518 14.2675C8.82545 14.2562 8.84379 14.2562 8.85626 14.2562C8.90125 14.2675 8.91715 14.3086 8.91397 14.3315C8.90761 14.3533 8.89636 14.3465 8.89636 14.3465C8.87069 14.344 8.86164 14.3553 8.86164 14.3665C8.84697 14.4039 8.93475 14.5379 8.99539 14.5739C9.05432 14.6115 9.06117 14.6861 9.04454 14.7416C9.04332 14.7536 9.03819 14.7663 9.03819 14.7783C9.03012 14.7905 9.03012 14.8086 9.02694 14.8172C9.02694 14.8172 9.02229 14.814 9.02082 14.8086C9.00029 14.7631 8.97485 14.7563 8.96018 14.7592C8.93011 14.7651 8.91397 14.7981 8.90761 14.8526C8.90394 14.8881 8.90761 14.9101 8.92546 14.9179C8.9438 14.9301 8.96336 14.9213 8.97485 14.9137C8.98048 14.9213 8.99099 14.948 9.00371 14.9976C9.02229 15.0573 9.04821 15.0908 9.07804 15.0908C9.10861 15.0988 9.1426 15.0778 9.17243 15.0243C9.1805 15.0155 9.19101 15.0025 9.19468 14.9957C9.22793 14.9516 9.25654 14.9213 9.20275 14.8624C9.17243 14.8294 9.17561 14.8013 9.1805 14.7631C9.18343 14.7401 9.18343 14.7123 9.18343 14.6861V14.6805C9.19932 14.6881 9.21717 14.6949 9.22378 14.702C9.23307 14.7064 9.24603 14.7123 9.25825 14.7064C9.27708 14.702 9.28442 14.6805 9.29224 14.6504L9.2986 14.6306C9.31914 14.5739 9.30349 14.5174 9.24872 14.4739C9.22035 14.4465 9.19101 14.3963 9.1805 14.3626C9.21106 14.3665 9.23551 14.3553 9.25239 14.3386C9.26877 14.323 9.26877 14.288 9.25239 14.2562C9.24872 14.2413 9.25654 14.2269 9.26339 14.2149C9.26926 14.2088 9.27439 14.2046 9.27928 14.2088C9.28442 14.2112 9.29029 14.2293 9.28711 14.2741C9.26926 14.4174 9.34164 14.4963 9.34457 14.5012L9.36682 14.525L9.37 14.4905C9.37 14.4905 9.37978 14.4174 9.42282 14.3012C9.46879 14.1905 9.45656 14.1658 9.4101 14.1046L9.39714 14.0904C9.39103 14.0816 9.38492 14.0704 9.38761 14.0577C9.39567 14.023 9.44507 13.9819 9.46439 13.9704V13.9672C9.46805 13.988 9.47563 14.008 9.47563 14.0315C9.51573 14.1491 9.58127 14.01 9.63677 13.8376C9.68665 13.6677 9.71355 13.4447 9.84144 13.6332C9.88398 13.6999 9.92726 13.7611 9.96712 13.8166C9.96492 13.8256 9.95734 13.8305 9.95245 13.8376H9.95123C9.92066 13.943 9.94169 14.0648 9.97201 14.1345C9.97666 14.1714 9.97079 14.2384 9.94169 14.2851C9.89205 14.3702 9.97079 14.4523 9.99768 14.4797C10.0468 14.5254 10.0309 14.6409 10.0309 14.6409H10.0615C10.0615 14.6409 10.0754 14.5174 10.0197 14.458C9.9544 14.3963 9.93655 14.344 9.96492 14.3012C9.9879 14.2675 9.99768 14.2269 10.0021 14.1853C10.0021 14.1853 10.0121 14.1905 10.0133 14.1931C10.0053 14.3533 10.0258 14.4523 10.0737 14.4924C10.1094 14.5254 10.1459 14.525 10.1715 14.5174C10.1879 14.5523 10.2195 14.5648 10.2415 14.5648C10.2469 14.5648 10.2527 14.5648 10.2527 14.5648C10.2415 14.6206 10.2158 14.7494 10.2879 14.8013C10.3153 14.8211 10.3356 14.8272 10.3566 14.8172C10.3623 14.8507 10.3884 14.8573 10.4276 14.879C10.4395 14.879 10.4486 14.8839 10.4584 14.8915C10.5449 14.9301 10.6021 14.8881 10.687 14.8228C10.765 14.7651 10.7811 14.6748 10.7811 14.6543C10.7811 14.6504 10.7824 14.6409 10.7936 14.6306C10.7824 14.6504 10.7824 14.6714 10.7824 14.6905V14.6959C10.7936 14.7702 10.7936 14.7934 10.8127 14.8013C10.8225 14.8086 10.8401 14.8013 10.8508 14.7981C10.8978 14.7771 10.9102 14.7631 10.8992 14.7064C10.888 14.6626 10.9102 14.5939 10.9362 14.5739C10.9569 14.5553 10.9738 14.525 10.9662 14.5012C10.9569 14.4827 10.942 14.4687 10.8978 14.4687H10.8924L10.8863 14.4704C10.8833 14.4739 10.8225 14.5365 10.7968 14.6064C10.8034 14.5861 10.8034 14.5648 10.7824 14.5433C10.7706 14.532 10.7616 14.5254 10.7474 14.5254C10.7283 14.5254 10.7158 14.5379 10.7046 14.5523C10.7012 14.558 10.6946 14.5648 10.687 14.5739C10.677 14.5739 10.6674 14.5817 10.6674 14.5817C10.6674 14.5817 10.6564 14.5778 10.6469 14.5523C10.6371 14.5379 10.6263 14.5254 10.6134 14.525C10.5943 14.5174 10.5669 14.525 10.5449 14.5254L10.5461 14.525C10.5525 14.5147 10.5559 14.5086 10.5637 14.4963C10.5848 14.4687 10.6134 14.4259 10.6134 14.3553C10.6215 14.3553 10.6263 14.3553 10.6371 14.3533C10.6674 14.344 10.6706 14.3465 10.677 14.3553C10.6819 14.3702 10.6946 14.3897 10.733 14.4051C10.8061 14.4357 10.8704 14.3963 10.9007 14.3665C10.9161 14.387 10.9325 14.3963 10.9533 14.3963C10.9709 14.3897 10.9897 14.377 11.0029 14.3665C11.0841 14.3553 11.2147 14.2675 11.301 14.2046C11.3076 14.2037 11.3139 14.1963 11.3188 14.1931C11.312 14.2193 11.3076 14.2482 11.3024 14.2741C11.2709 14.2741 11.2389 14.2851 11.2122 14.3027C11.1364 14.3626 11.1271 14.4827 11.1271 14.4905V14.5012C11.1482 14.525 11.1687 14.5254 11.1971 14.525C11.2325 14.5086 11.2787 14.4687 11.3024 14.399C11.3095 14.4687 11.3252 14.5086 11.3252 14.5122L11.3303 14.525H11.3408L11.4272 14.5122C11.4389 14.5127 11.4673 14.5174 11.488 14.5025C11.5003 14.4963 11.5066 14.4827 11.5118 14.4739C11.5166 14.4465 11.5751 14.4039 11.6233 14.3665C11.6458 14.3533 11.6634 14.3315 11.6841 14.323C11.748 14.2675 11.8243 14.0904 11.8467 13.9447C11.8612 13.8256 11.8866 13.7965 11.893 13.7894C11.8979 13.7875 11.9025 13.7848 11.9025 13.7848C11.9184 13.7904 11.9487 13.7965 11.9793 13.7926C11.9837 13.8376 11.9937 13.9765 11.9443 14.0648C11.879 14.1853 11.858 14.2384 11.858 14.2785C11.858 14.3127 11.8612 14.3533 11.8866 14.3626C11.9025 14.3702 11.9221 14.3665 11.9475 14.3465C12.0111 14.298 12.1138 14.1227 12.1081 14.008C12.1081 14.008 12.0974 13.7325 12.0974 13.7109C12.1081 13.6757 12.1003 13.6376 12.0922 13.586C12.0832 13.5452 12.07 13.4955 12.07 13.4403C12.07 13.4229 12.0676 13.3784 12.07 13.3679C12.0756 13.3679 12.0832 13.3725 12.0874 13.3784C12.1042 13.384 12.1343 13.3975 12.1729 13.4046C12.2788 13.4165 12.4739 13.3975 12.6082 13.3725L12.6114 13.3679L12.6141 13.3659C12.6339 13.3417 12.6637 13.3332 12.6815 13.3249C12.7038 13.316 12.7197 13.3104 12.7197 13.2911C12.7197 13.2899 12.7197 13.2862 12.7197 13.2862C12.7197 13.2045 12.7554 13.1466 12.83 13.1165C12.9449 13.0757 12.9351 13.0065 12.9207 12.9542C13.0887 13.1006 13.409 13.5796 13.4672 13.7378C13.4586 13.8613 13.4919 13.9166 13.5229 13.9672C13.5256 13.9765 13.5352 13.9963 13.5418 14.008C13.5229 14.067 13.5638 14.1533 13.6247 14.2088C13.6513 14.2364 13.6513 14.2501 13.6594 14.288C13.6616 14.3174 13.6616 14.3533 13.6787 14.4051C13.641 14.5272 13.6978 14.6125 13.7364 14.6663L13.741 14.6785C13.6838 14.8971 13.7188 14.936 13.7807 14.9622C13.7807 14.9622 13.7807 14.9622 13.7841 14.9622C13.7902 15.0218 13.8159 15.0526 13.8557 15.1072C13.8658 15.115 13.8768 15.1287 13.8819 15.1421C13.8768 15.1588 13.8689 15.181 13.8614 15.2062C13.8303 15.1881 13.8335 15.1453 13.8335 15.1453V15.1421C13.8335 15.1326 13.8288 15.0526 13.7807 15.0402C13.7538 15.0274 13.7364 14.9898 13.73 14.9781L13.7249 14.958L13.7112 14.9683C13.6672 14.9976 13.6071 15.0663 13.6489 15.1421C13.6978 15.2179 13.7156 15.2803 13.7029 15.325C13.6978 15.3429 13.7029 15.3673 13.7041 15.3874C13.7117 15.4204 13.7117 15.4326 13.6951 15.4392C13.6616 15.4519 13.6452 15.4656 13.641 15.4847C13.641 15.4989 13.6489 15.518 13.6787 15.5346C13.7188 15.56 13.7682 15.5867 13.8007 15.5519C13.81 15.539 13.8252 15.5378 13.8374 15.5346C13.8374 15.5889 13.8374 15.6307 13.8374 15.639V15.6424L13.8401 15.6476C13.8411 15.6495 14.001 15.8505 13.9841 16.0001C13.9616 16.1637 14.0875 16.3237 14.1575 16.3728C14.2281 16.418 14.2712 16.4848 14.2741 16.5408C14.279 16.6137 14.3328 16.7486 14.4017 16.7924C14.4367 16.8129 14.4543 16.8604 14.4736 16.9161C14.4912 16.9606 14.5052 17.011 14.5328 17.0587C14.5705 17.1218 14.6064 17.1262 14.6221 17.1262C14.6443 17.1262 14.6602 17.1149 14.6717 17.0944C14.6778 17.0797 14.6778 17.0587 14.6651 17.0435C14.6409 17.0125 14.6379 16.9807 14.6304 16.9288V16.8951L14.6221 16.8846L14.6172 16.8794C14.5705 16.8604 14.5472 16.7594 14.5421 16.7269V16.7225L14.537 16.7203C14.4912 16.6611 14.4465 16.5814 14.4516 16.5577C14.4651 16.5129 14.4465 16.4122 14.4061 16.3581V16.3562C14.358 16.3153 14.3553 16.288 14.3492 16.2606C14.346 16.2383 14.3443 16.2175 14.3174 16.1845C14.2658 16.1381 14.2946 16.0192 14.2946 16.0192V16.0148C14.2834 15.9574 14.2834 15.8935 14.2834 15.875C14.358 15.8708 14.3986 15.7683 14.4061 15.7422C14.4061 15.739 14.4061 15.7339 14.4061 15.73C14.4096 15.7141 14.4179 15.6906 14.424 15.6825C14.4284 15.6825 14.4318 15.6825 14.4318 15.6825C14.4594 15.6906 14.4829 15.6906 14.4976 15.6769C14.5123 15.67 14.525 15.6517 14.5309 15.6236C14.5328 15.5989 14.5328 15.5989 14.5612 15.5989C14.5705 15.5989 14.5802 15.5989 14.5944 15.5989C14.6074 15.5989 14.6221 15.6072 14.6379 15.6236C14.6602 15.6495 14.6666 15.6825 14.6651 15.7026C14.6602 15.7263 14.6732 15.7576 14.7001 15.7823C14.7243 15.7989 14.7693 15.8084 14.8375 15.7737C14.8644 15.76 14.8839 15.7576 14.8981 15.7669C14.938 15.7823 14.9568 15.8466 14.9781 15.8975C14.9822 15.9148 14.9876 15.9339 14.9954 15.9454C15.0145 15.9879 15.0346 16.0121 15.0561 16.008C15.069 16.008 15.0876 16.0043 15.0976 15.9635C15.104 15.9454 15.1118 15.9454 15.1263 15.9454C15.1373 15.9454 15.158 15.949 15.1642 15.9339C15.184 15.9087 15.236 15.8402 15.1871 15.7952Z" fill="white"/>
<path id="Vector_4" fill-rule="evenodd" clip-rule="evenodd" d="M12.3286 13.4731C12.3237 13.4594 12.3127 13.4511 12.3047 13.4416C12.2861 13.4262 12.257 13.4183 12.2381 13.4262C12.2381 13.4262 12.2252 13.4262 12.2142 13.4262C12.1973 13.4262 12.1773 13.4262 12.1658 13.4416C12.1516 13.4548 12.1484 13.4748 12.1599 13.5015V13.5069L12.1604 13.51C12.1604 13.51 12.2044 13.5758 12.1773 13.6722C12.1484 13.769 12.1658 13.846 12.1658 13.8536C12.1658 13.881 12.1604 14.1964 12.123 14.2908L12.1213 14.2959C12.1213 14.3086 12.123 14.3258 12.1342 14.3441C12.1178 14.3231 12.0973 14.3174 12.0863 14.3174C12.0755 14.3174 12.065 14.3174 12.0513 14.3086L12.0389 14.2981L12.0318 14.3135C12.0283 14.3231 11.998 14.3898 12.0222 14.4319C12.0318 14.4466 12.0513 14.458 12.0699 14.461C12.1178 14.4688 12.1389 14.4466 12.1484 14.4319C12.1604 14.4052 12.1567 14.3715 12.1389 14.3534C12.1389 14.3534 12.1484 14.3553 12.1567 14.3627C12.1658 14.3666 12.1897 14.3703 12.2174 14.3419C12.2252 14.3316 12.2381 14.3231 12.2489 14.3086C12.3034 14.2624 12.3959 14.182 12.4213 14.0397C12.4531 13.8639 12.4306 13.8306 12.3939 13.7709V13.769C12.3846 13.7599 12.3795 13.7506 12.3719 13.7379C12.3257 13.6678 12.2868 13.601 12.3286 13.5494C12.3604 13.6127 12.4127 13.7 12.4531 13.7071C12.4582 13.7103 12.4709 13.7071 12.4785 13.7015C12.5108 13.6575 12.4832 13.6042 12.4455 13.5269C12.4127 13.466 12.3604 13.4594 12.3286 13.4731Z" fill="white"/>
<path id="Vector_5" fill-rule="evenodd" clip-rule="evenodd" d="M13.045 13.4262C13.0154 13.2864 12.89 13.1912 12.8841 13.1903L12.8694 13.1805L12.8592 13.1964C12.7672 13.4661 12.8188 13.5546 12.8267 13.5671C12.8342 13.5746 12.9208 13.7275 12.945 13.7759C12.9592 13.8021 12.9721 13.8133 12.9902 13.8133C13.0186 13.8167 13.0487 13.7928 13.0966 13.7326C13.1394 13.6722 13.1142 13.6179 13.0856 13.5495C13.0724 13.5187 13.0599 13.4778 13.045 13.4262Z" fill="white"/>
<path id="Vector_6" fill-rule="evenodd" clip-rule="evenodd" d="M8.97627 15.0336C8.95524 15.0243 8.93299 15.0389 8.9171 15.0526C8.90389 15.0702 8.89631 15.0918 8.90389 15.1135C8.91392 15.1453 8.95524 15.1588 8.98385 15.1504C9.00366 15.1421 9.02689 15.1218 9.01613 15.0778C9.00463 15.0451 8.99094 15.0389 8.97627 15.0336Z" fill="white"/>
<path id="Vector_7" fill-rule="evenodd" clip-rule="evenodd" d="M9.45514 14.9343C9.45661 14.915 9.45661 14.8954 9.428 14.879C9.41651 14.8734 9.40061 14.8573 9.39572 14.8402C9.38496 14.8172 9.37469 14.7981 9.35929 14.7905C9.34462 14.7895 9.33386 14.7905 9.32408 14.8013H9.31919V14.8086C9.31919 14.8086 9.28446 14.8881 9.33532 14.9421C9.38496 14.9859 9.38496 15.0062 9.36687 15.0275C9.3544 15.0497 9.35 15.0744 9.35929 15.0908C9.36247 15.1001 9.37983 15.116 9.41968 15.116C9.44805 15.116 9.4681 15.1072 9.47568 15.0918C9.48815 15.0702 9.48497 15.0421 9.46443 15.0025C9.44805 14.9683 9.44805 14.9517 9.45514 14.9343Z" fill="white"/>
<path id="Vector_8" fill-rule="evenodd" clip-rule="evenodd" d="M9.61128 14.866C9.59539 14.8572 9.5812 14.8506 9.56653 14.8343C9.52374 14.7981 9.5345 14.747 9.54257 14.7122C9.54746 14.6905 9.53621 14.6663 9.52374 14.6448C9.50393 14.6262 9.48022 14.6186 9.46432 14.6205C9.44036 14.6223 9.41004 14.6007 9.39097 14.5939L9.37972 14.5817L9.36676 14.5976C9.33375 14.6575 9.34157 14.7206 9.35551 14.7494C9.36676 14.7934 9.39243 14.8272 9.41004 14.8294C9.41004 14.8343 9.4164 14.8343 9.42153 14.8401C9.43865 14.8401 9.46432 14.8506 9.47557 14.8915C9.49 14.958 9.52154 14.9683 9.55675 14.9834C9.55675 14.9859 9.56482 14.9859 9.56971 14.9898C9.59539 15.0025 9.61813 15.0025 9.63671 14.9898C9.65554 14.981 9.66556 14.9621 9.67021 14.9421C9.67339 14.9149 9.64649 14.8954 9.61128 14.866Z" fill="white"/>
<path id="Vector_9" fill-rule="evenodd" clip-rule="evenodd" d="M9.77674 14.7536C9.76476 14.747 9.75034 14.7402 9.74398 14.7345L9.74202 14.7265C9.72124 14.6949 9.68676 14.6409 9.71023 14.5778C9.7205 14.5553 9.72808 14.5379 9.73884 14.5174C9.75523 14.4827 9.77136 14.4524 9.76085 14.4318C9.75523 14.4286 9.75034 14.4218 9.73249 14.4174C9.71366 14.4127 9.69116 14.4127 9.67527 14.4127C9.69972 14.3553 9.69116 14.2562 9.68676 14.2433L9.6606 14.2482C9.66353 14.2981 9.6606 14.3898 9.64275 14.4127C9.60509 14.4524 9.55032 14.5812 9.5667 14.6575C9.56988 14.6626 9.56988 14.6714 9.57159 14.6785C9.58577 14.7494 9.61145 14.8719 9.75034 14.8414C9.79948 14.8343 9.82051 14.8228 9.82174 14.8086C9.82834 14.7842 9.79948 14.7702 9.77674 14.7536Z" fill="white"/>
<path id="Vector_10" fill-rule="evenodd" clip-rule="evenodd" d="M11.097 14.6178C11.1031 14.6009 11.1063 14.594 11.1117 14.5813C11.1271 14.541 11.1481 14.4926 11.097 14.4688C11.0829 14.4525 11.0618 14.4466 11.0459 14.4424C11.022 14.4319 11.0119 14.4261 11.0075 14.4092C11.0075 14.4053 11.0044 14.4053 11.0044 14.4053L10.9777 14.4175C10.9777 14.4192 11.0119 14.4965 10.9674 14.5649C10.9276 14.6234 10.9102 14.6628 10.9232 14.6882C10.9325 14.6997 10.942 14.7065 10.9569 14.7031C11.0344 14.696 11.0829 14.6716 11.097 14.6178Z" fill="white"/>
<path id="Vector_11" fill-rule="evenodd" clip-rule="evenodd" d="M11.3458 14.5525C11.3458 14.541 11.3348 14.5381 11.3348 14.5381C11.3282 14.5366 11.3189 14.5381 11.3121 14.5435C11.3077 14.5525 11.2962 14.5525 11.2747 14.5496C11.2568 14.5496 11.2265 14.5496 11.1935 14.565C11.1338 14.6009 11.1482 14.7232 11.1529 14.7403L11.1803 14.7347C11.1803 14.7283 11.1935 14.7249 11.2199 14.7207C11.2421 14.7124 11.2727 14.7065 11.2962 14.6831C11.3348 14.6506 11.3558 14.5779 11.3458 14.5525Z" fill="white"/>
<path id="Vector_12" fill-rule="evenodd" clip-rule="evenodd" d="M11.558 14.5819C11.5646 14.578 11.5727 14.5582 11.5646 14.5435C11.5536 14.5257 11.5277 14.5252 11.5003 14.5252C11.4622 14.5176 11.4402 14.5381 11.4096 14.5741C11.4003 14.5741 11.3935 14.5819 11.3842 14.5927C11.3348 14.6391 11.3487 14.6907 11.3487 14.6951L11.3558 14.7032H11.3619C11.4847 14.7149 11.5409 14.6179 11.558 14.5819Z" fill="white"/>
<path id="Vector_13" fill-rule="evenodd" clip-rule="evenodd" d="M9.99284 14.6009C9.98795 14.5554 9.9767 14.4689 9.90506 14.4261C9.92071 14.3534 9.91264 14.1346 9.85836 14.0705C9.8053 14.016 9.84589 13.9023 9.84589 13.9016L9.81581 13.8901C9.81581 13.8977 9.77375 14.0231 9.83635 14.0906C9.88281 14.1417 9.8921 14.3388 9.8789 14.4053C9.80285 14.3554 9.7515 14.2676 9.7515 14.2625L9.72803 14.2786C9.72803 14.2852 9.78696 14.3872 9.8696 14.4358C9.86007 14.4466 9.85444 14.461 9.85444 14.461C9.83146 14.5129 9.82168 14.5256 9.84906 14.5525C9.83635 14.565 9.82046 14.5818 9.82828 14.6234C9.83146 14.6882 9.83635 14.695 9.8696 14.7148C9.8789 14.7232 9.8921 14.7266 9.90506 14.7403C9.93049 14.7633 9.95127 14.7537 9.96497 14.7447C9.99284 14.7249 10.0021 14.6576 9.99284 14.6263C9.99284 14.6224 9.99284 14.6141 9.99284 14.6009Z" fill="white"/>
<path id="Vector_14" fill-rule="evenodd" clip-rule="evenodd" d="M11.0158 14.7416C10.9867 14.7416 10.9676 14.7746 10.9571 14.8013C10.9549 14.8228 10.9571 14.8414 10.9664 14.8526C10.9855 14.8661 11.0397 14.8734 11.062 14.8526C11.0735 14.8414 11.0921 14.8172 11.0683 14.7771C11.0485 14.7416 11.0268 14.7402 11.0158 14.7416Z" fill="white"/>
<path id="Vector_15" fill-rule="evenodd" clip-rule="evenodd" d="M11.1337 14.7651C11.1271 14.7632 11.1156 14.7632 11.1102 14.7664C11.0919 14.7783 11.0777 14.814 11.0841 14.8402C11.0855 14.8573 11.097 14.8791 11.1193 14.8881C11.1589 14.9023 11.1733 14.8803 11.1755 14.872C11.1863 14.8402 11.164 14.7783 11.1337 14.7651Z" fill="white"/>
<path id="Vector_16" fill-rule="evenodd" clip-rule="evenodd" d="M11.5596 14.6064L11.5647 14.6409C11.5647 14.6714 11.5581 14.6959 11.5537 14.7264C11.5454 14.7592 11.5437 14.7842 11.5437 14.8086C11.541 14.8013 11.5347 14.7981 11.5322 14.7934C11.5148 14.7783 11.4943 14.7783 11.4816 14.7934C11.4674 14.8086 11.4655 14.8272 11.4769 14.8507C11.4848 14.8734 11.5068 14.9023 11.5322 14.9023C11.5437 14.9032 11.5537 14.8971 11.5581 14.8881C11.5596 14.8839 11.5647 14.879 11.5647 14.879C11.5647 14.8971 11.5836 14.9137 11.6012 14.9137C11.6222 14.915 11.6396 14.9023 11.6396 14.879C11.6396 14.8624 11.6381 14.8526 11.6285 14.848C11.6564 14.8294 11.6667 14.814 11.6731 14.7981C11.6843 14.7345 11.5982 14.6409 11.5836 14.6306L11.5596 14.6064Z" fill="white"/>
<path id="Vector_17" fill-rule="evenodd" clip-rule="evenodd" d="M13.7155 14.7842C13.73 14.7326 13.7473 14.6829 13.6882 14.6365L13.6838 14.6306H13.6786C13.6786 14.6306 13.5989 14.6306 13.5989 14.7402C13.5989 14.8294 13.5847 15.0025 13.5811 15.0402C13.5811 15.0497 13.5847 15.0585 13.5847 15.0585C13.593 15.0664 13.6006 15.0673 13.6102 15.0632C13.6385 15.0527 13.6786 14.9781 13.6882 14.8881C13.695 14.8414 13.7028 14.814 13.7155 14.7842Z" fill="white"/>
<path id="Vector_18" d="M19.3659 12.1371L19.999 12.8589L20.8575 12.4312L20.3692 13.2563L21.0428 13.9431L20.1058 13.7326L19.6622 14.5818L19.5715 13.6257L18.6294 13.4731L19.5077 13.0892L19.3659 12.1371Z" fill="#6F7E8B"/>
<path id="Vector_19" d="M18.008 17.31L18.1598 16.3635L17.2825 15.9732L18.2315 15.8233L18.3334 14.866L18.7662 15.7263L19.7052 15.5243L19.0261 16.2058L19.501 17.0359L18.6496 16.5975L18.008 17.31Z" fill="#6F7E8B"/>
<path id="Vector_20" d="M2.63004 12.1371L1.9982 12.8589L1.13627 12.4312L1.62653 13.2563L0.956055 13.9431L1.88914 13.7326L2.33466 14.5818L2.42391 13.6257L3.3751 13.4731L2.49433 13.0892L2.63004 12.1371Z" fill="#6F7E8B"/>
<path id="Vector_21" d="M3.98456 17.31L3.83467 16.3635L4.71421 15.9732L3.76621 15.8233L3.664 14.866L3.22826 15.7263L2.29199 15.5243L2.96956 16.2058L2.49446 17.0359L3.34514 16.5975L3.98456 17.31Z" fill="#6F7E8B"/>
<path id="Vector_22" d="M1.3931 8.1286C1.34713 8.26162 1.29089 8.48682 1.27206 8.66435L1.49213 8.70469C1.49213 8.70469 1.09479 9.08908 1.09185 9.59059C1.08672 9.96813 1.4491 10.4503 1.6007 10.3616C1.6787 10.3178 1.75841 10.1765 1.6787 9.84073C1.65205 9.71456 1.70609 9.39986 1.77944 9.39986C1.84913 9.40451 2.00929 9.48691 2.08754 10.0009C2.18828 9.94074 2.32179 9.8356 2.32179 9.8356C2.32179 9.8356 2.17019 9.14067 1.88165 9.14287C1.50142 9.14801 1.57356 9.77569 1.46034 9.76787C1.38185 9.76542 1.17303 9.17564 1.67723 8.76044C1.76159 8.77585 2.57633 8.97611 2.57633 8.97611C2.59492 8.88441 2.63967 8.66435 2.63967 8.66435L1.58187 8.39929L1.64716 8.20367L1.3931 8.1286Z" fill="#717F8C"/>
<path id="Vector_23" d="M2.36194 7.21619L2.69864 7.18905C2.73385 8.01969 2.41695 8.09745 2.22183 8.12434C1.95163 8.15613 1.16672 7.22231 2.34066 6.44131L2.1448 6.30902C2.18319 6.21537 2.292 5.98528 2.41353 5.83661L2.62382 5.95227C2.62382 5.95227 2.53701 6.06744 2.48053 6.17136L3.44663 6.71199C3.44663 6.71199 3.36227 6.86506 3.3097 6.98219C3.3097 6.98219 2.62382 6.6203 2.63018 6.6159C1.80663 6.8054 1.99467 8.00184 2.17732 7.99695C2.3233 7.99157 2.50547 7.86344 2.36194 7.21619Z" fill="#717F8C"/>
<path id="Vector_24" d="M8.24076 1.80366L8.53907 2.03547C8.53907 2.03547 8.7831 1.45889 9.15037 1.70707C9.35088 1.8418 8.93006 2.45457 8.39823 2.40542C7.96934 2.36826 7.53556 1.97482 7.53556 1.97482L7.43286 2.01762C7.43286 2.01762 7.96934 2.78834 8.86477 2.5986C9.18045 2.5338 9.51569 1.95649 9.37973 1.71514C9.24085 1.46842 8.69997 1.28797 8.24076 1.80366Z" fill="#717F8C"/>
<path id="Vector_25" d="M15.2444 2.9884C15.2444 2.9884 15.7258 3.40238 15.9325 3.97284C15.9127 4.00463 15.851 4.12053 15.851 4.12053C15.851 4.12053 15.8283 3.72417 15.0908 3.2361C15.1118 3.19087 15.2444 2.9884 15.2444 2.9884Z" fill="#717F8C"/>
<path id="Vector_26" d="M16.7966 2.78827C16.7966 2.78827 18.6461 4.05733 19.8025 6.12842C20.1323 6.7138 20.4006 7.39797 20.5991 8.15598C20.6735 8.45014 20.5045 8.99298 20.3341 9.00569C20.5018 9.11206 20.9324 9.5253 20.5255 9.97962C20.6928 9.97962 20.9564 9.96054 20.9564 9.96054C20.9564 9.96054 20.9838 10.3396 20.9882 10.4936H20.7373C20.7476 10.4139 20.7265 10.2459 20.7265 10.2459L19.6191 10.2999C19.6174 10.1412 19.5964 10.0209 19.5964 10.0209L20.149 9.99233C20.149 9.99233 20.4898 9.96617 20.4598 9.53826C20.4424 9.30254 20.1666 9.12991 20.0737 9.19226C19.9856 9.25608 19.9988 9.45536 20.1443 9.63851C20.0864 9.68595 19.8876 9.8197 19.8876 9.8197C19.8876 9.8197 19.5587 9.56833 19.8837 9.0969C19.7052 8.99811 19.501 8.76044 19.5201 8.35478C19.5964 8.34598 19.8548 8.35478 19.8548 8.35478C19.8548 8.35478 19.7643 8.96046 20.0563 8.93527C20.1348 8.93136 20.471 8.79932 20.3165 8.03519C20.2749 7.83688 19.8978 6.82432 19.7052 6.54851C19.5964 6.60792 19.1188 6.8412 19.1188 6.8412C19.1188 6.8412 19.633 7.32461 19.737 7.5305C19.7247 7.63711 19.624 7.9298 19.624 7.93616C19.4198 7.81732 19.2376 7.66107 18.811 7.91831C18.7679 7.87112 18.7454 7.80241 18.7454 7.80241C18.7454 7.80241 19.0261 7.56742 19.389 7.55055C19.3572 7.50996 19.1188 7.22925 18.7679 7.03755C18.7523 6.9769 18.7295 6.6627 18.7295 6.6627L19.5616 6.26584C19.5616 6.26584 19.0821 5.59756 18.3735 5.85676C18.2334 5.90688 18.1168 6.32281 18.4884 6.4304C18.4755 6.49985 18.3828 6.67248 18.3828 6.67248C18.3828 6.67248 17.8664 6.39666 18.1945 5.83646C18.3016 5.65649 18.7838 5.48924 19.2007 5.65649C19.1655 5.6005 18.8085 5.07845 18.7679 5.03639C18.7105 5.06989 17.8451 5.66041 17.8451 5.66041L17.6732 5.45452L18.5767 4.79578L18.3065 4.47717L17.4336 5.17308L17.2641 4.98235C17.2641 4.98235 17.6025 4.72487 17.6891 4.63807C17.7798 4.55126 17.6524 4.20967 17.0729 4.37496C17.0749 4.26419 17.1531 3.57294 16.4824 3.61573C16.3721 3.62135 16.3249 3.63627 16.3105 3.69495C16.2897 3.79472 16.4122 3.97982 16.7247 3.96001C16.7267 3.99473 16.7333 4.24586 16.7333 4.24586C16.7333 4.24586 16.02 4.21945 16.199 3.60423C16.245 3.44187 16.9543 2.95161 17.2052 4.00671C17.2869 4.01356 17.6187 3.92578 17.8153 4.49429C17.8664 4.4713 18.1133 4.26419 18.1133 4.26419C18.1133 4.26419 17.4448 3.56022 16.6499 2.98829L16.7966 2.78827Z" fill="#717F8C"/>
<path id="Vector_27" d="M8.52784 20.233L8.51953 20.4626C8.51953 20.4626 8.79926 20.5269 8.92544 20.7023C8.94573 20.6182 9.00026 20.5142 9.00026 20.5142C9.00026 20.5142 8.90392 20.2856 8.52784 20.233Z" fill="#717F8C"/>
<path id="Vector_28" d="M15.6517 19.4099L15.6624 19.6202C15.6624 19.6202 15.4225 19.6112 15.2044 19.7786C15.1881 19.7271 15.1472 19.5664 15.1472 19.5664C15.1472 19.5664 15.3189 19.4221 15.6517 19.4099Z" fill="#717F8C"/>
<path id="Vector_29" d="M3.67822 5.19151C3.67822 5.19151 3.41659 5.14065 3.34494 5.13502C3.31658 4.92791 3.53469 4.4489 3.88118 4.54573L3.67822 5.19151ZM11.976 0.98453C12.0083 0.77571 11.462 -0.0449008 10.3355 0.406729C10.3566 0.489132 10.3913 0.688905 10.3913 0.688905C10.3913 0.688905 11.6633 0.200109 11.7349 0.967658C11.1363 0.906039 9.10707 0.799673 6.87166 1.8291C5.33803 2.4629 3.97996 3.77426 3.78019 4.02025L4.02447 4.28336C4.02447 4.28336 2.89136 4.03297 2.94417 5.41646C2.94906 5.54141 3.17353 5.51207 3.2041 5.39813C3.25056 5.21082 3.53714 5.07878 3.51977 5.47124C3.62394 5.46097 3.78777 5.46097 3.78777 5.46097L4.14428 4.42029L4.55141 4.83402C4.55141 4.83402 4.18047 4.87754 4.07312 5.11008C3.93473 5.41133 3.91052 5.82579 3.68605 5.87641C3.62883 5.89206 3.39898 5.80623 3.34934 5.70916C3.34005 5.74999 3.3381 5.88717 3.3381 5.88717C3.3381 5.88717 3.53469 6.09134 3.75989 6.07691C3.88118 6.06738 4.18047 6.00062 4.30689 5.32061C4.32302 5.24139 4.37829 4.88268 4.77123 4.93427C4.8617 4.8416 4.90254 4.80443 4.90254 4.80443L4.16213 3.97477C4.16213 3.97477 4.65313 3.48598 4.98665 3.25906C4.97541 3.34782 4.97858 3.59039 5.15928 3.64125C5.7899 3.82219 5.85519 3.23608 5.93148 3.25172C6.00655 3.27373 6.05619 3.81192 5.40796 3.9178C4.97541 3.98553 4.61792 3.76228 4.60349 3.7948C4.59077 3.83075 4.55776 3.9178 4.55776 3.91169C4.86097 4.07405 5.54978 4.17821 5.94884 3.97477C6.32271 3.78845 6.42077 3.005 5.70041 3.05195C5.5982 3.54833 5.32287 3.52412 5.2544 3.47913C5.18154 3.43365 5.15268 3.05733 5.65028 2.77956C5.75885 2.81061 6.24911 2.85976 6.36722 2.78836C6.36208 2.88763 6.25987 3.25172 6.54376 3.65421C6.61467 3.64638 6.71664 3.59039 6.71664 3.59039C6.71664 3.59039 6.42077 3.32973 6.73766 2.6035C6.69854 2.55973 6.59095 2.45459 6.59095 2.45459C6.59095 2.45459 6.46282 2.69911 6.15619 2.69397C5.98234 2.68933 5.85568 2.71353 5.84199 2.65265C5.8926 2.63064 6.60171 2.21471 6.86799 2.09416L7.28637 3.11773C7.37073 3.03483 7.54776 3.00867 7.54776 3.00867L7.13159 1.98291C7.13159 1.98291 8.63465 1.20753 10.9212 1.18064C10.9777 1.17892 11.0344 1.38505 10.916 1.42613C10.7649 1.38701 10.6422 1.51049 10.6422 1.51049C10.6199 1.38505 10.0981 0.997245 9.74551 1.58458C9.79099 1.63275 9.97194 1.77824 9.97194 1.77824C9.97194 1.77824 10.2492 1.23736 10.5576 1.57089C10.5016 1.62811 10.3722 1.75795 10.3722 1.75795L10.6021 1.95357C10.6021 1.95357 10.84 1.60243 10.9977 1.65623C11.1192 1.69413 11.0997 1.79854 11.0537 2.1328C11.0344 2.12375 10.9102 1.99929 10.6321 2.04306C10.4187 2.07705 10.0177 2.26753 10.0177 2.10028C10.0177 1.93107 10.0404 1.8983 10.0404 1.8983L9.87315 1.95357C9.87315 1.95357 9.84894 2.38099 10.1172 2.40544C10.4238 2.43062 10.7375 2.23525 10.9464 2.24723C11.0711 2.25579 11.164 2.29223 11.164 2.29223H11.3075C11.3075 2.29223 11.4559 1.61931 11.1755 1.49411C11.2725 1.4144 11.2566 1.32148 11.2263 1.18455C11.3618 1.18993 11.5833 1.19139 11.7349 1.20876L11.622 2.3113C11.7141 2.26753 11.879 2.33233 11.879 2.33233L12.0083 1.23247L12.1658 1.25399L12.1883 1.00703C12.1883 1.00703 11.9792 0.986242 11.976 0.98453Z" fill="#717F8C"/>
<path id="Vector_30" d="M13.9964 2.45255C13.9964 2.45255 13.7841 2.17477 13.6411 2.11951C13.869 2.13271 14.1387 2.11951 14.1387 2.11951L13.9964 2.45255ZM13.008 1.13629C13.008 1.13629 12.9704 1.2808 12.9449 1.37225C13.9164 1.59403 14.2311 1.73463 14.3023 1.75786C14.3023 1.75786 14.2629 1.84173 14.2629 1.83782C13.8861 1.79283 12.8694 1.76593 12.8694 1.76593C12.8694 1.76593 12.9002 1.98062 12.9244 2.07134C13.9267 2.30217 14.0027 2.81908 14.0027 2.81908C14.0027 2.81908 14.0812 2.85136 14.114 2.86799L14.5661 1.86203C14.5661 1.86203 14.7913 1.94296 14.9432 2.01265L14.4517 3.00492C14.4517 3.00492 14.6409 3.08536 14.7045 3.12547L15.1789 2.11951C15.1789 2.11951 15.273 2.16915 15.3388 2.19849L15.4662 1.9926C14.9476 1.69404 13.6787 1.24902 13.008 1.13629Z" fill="#717F8C"/>
<path id="Vector_31" d="M15.5445 2.65801C15.5445 2.37461 16.3106 2.39368 16.3106 2.63894C16.3106 2.92918 15.5445 2.95828 15.5445 2.65801ZM15.8878 2.19855C15.709 2.19269 15.4183 2.32277 15.4073 2.6228C15.4024 2.92454 15.6318 3.0556 15.9086 3.07785C16.1729 3.09912 16.3932 2.91964 16.4047 2.63894C16.4123 2.32448 16.0616 2.20418 15.8878 2.19855Z" fill="#717F8C"/>
<path id="Vector_32" d="M15.1981 19.0602L15.6126 18.6949L15.8424 19.0698L15.1981 19.0602ZM11.4271 20.0941C11.4768 20.0709 11.9604 19.917 11.9604 19.917L11.9981 20.3877C11.9981 20.3877 11.5981 20.1278 11.4271 20.0941ZM9.52037 20.3271C9.39102 20.0899 8.99098 19.8879 8.99098 19.8879L9.59372 19.8762C9.59372 19.8762 9.53626 20.2496 9.52037 20.3271ZM7.34707 19.204C7.31284 19.0962 7.10915 18.7788 7.0133 18.7482C6.82502 18.6864 6.5937 18.7265 6.48831 18.7162C6.51863 18.5499 6.46924 18.3035 6.46924 18.3035C6.95388 18.5895 7.49036 18.8431 7.49036 18.8431C7.49036 18.8431 7.37886 19.1515 7.34707 19.204ZM15.7104 18.1849L15.9273 18.0389C15.9273 18.0389 15.8283 17.9108 15.7564 17.8203C15.5471 17.9462 13.9516 19.3035 10.9978 19.3035C8.04762 19.3035 6.11835 17.7636 5.9824 17.6423C5.9824 17.6538 5.81662 17.8601 5.81662 17.8601C5.81662 17.8601 5.90293 17.9213 5.94743 17.9582C5.922 18.0259 5.93936 18.1137 6.02715 18.1692C6.33671 18.3665 6.35236 18.4624 6.36728 18.5812C6.38293 18.6949 6.28243 18.8047 6.09268 18.8267C5.85574 18.8509 5.82151 18.7096 5.82591 18.5181C5.83251 18.5103 5.75573 18.5074 5.68384 18.5074C5.62222 18.7998 5.77823 19.0602 5.96382 19.1265C6.14378 19.1889 6.79323 19.0475 7.01966 19.1067C7.25782 19.1634 7.23361 19.507 7.23361 19.507L7.04191 19.8522C7.04191 19.8522 7.18862 19.9246 7.33607 19.9733C7.33607 19.9733 7.75835 19.0263 7.79185 18.9693C8.73839 19.3569 9.64776 19.4811 9.64776 19.4811L9.63676 19.5723L8.0931 19.5571C8.0931 19.5571 8.10019 19.7718 8.0931 19.8879C9.0301 19.9202 9.49958 20.5711 9.49958 20.5711C9.49958 20.5711 9.63334 20.5946 9.79105 20.6132C9.79105 20.6132 9.93361 19.6476 9.95733 19.5214C11.0618 19.652 11.9331 19.5307 11.9331 19.5307V19.6329L10.4239 20.0899C10.4239 20.0899 10.5378 20.2985 10.5865 20.3542C11.6157 20.1806 12.0399 20.6279 12.0399 20.6279C12.0399 20.6279 12.1773 20.6252 12.3099 20.6041C12.3099 20.6041 12.2759 19.9036 12.281 19.8469C12.8121 19.7065 12.9498 19.8036 12.9591 19.8826C12.972 20.0139 12.8507 20.031 12.5842 20.0782C12.5842 20.0782 12.6796 20.3039 12.6859 20.3271C13.0855 20.2929 13.1285 19.9405 13.1185 19.8762C13.0887 19.7065 12.9351 19.5498 12.2541 19.6031C12.2541 19.607 12.2541 19.4972 12.2541 19.4972C12.6082 19.4495 13.3515 19.2571 13.3515 19.2571L13.6616 20.3129C13.6616 20.3129 13.841 20.2858 13.9535 20.2291L13.6361 19.1693C14.5516 18.9003 15.4358 18.3607 15.4358 18.3607L15.4693 18.4189C15.351 18.5255 14.245 19.4287 14.245 19.4287C14.245 19.4287 14.4318 19.5884 14.5052 19.619C15.104 19.1158 16.1087 19.2341 16.1087 19.2341C16.1087 19.2341 16.1456 19.2341 16.2542 19.1436L15.7104 18.1849Z" fill="#717F8C"/>
</g>
</svg>
